<svg width="213" height="452" viewBox="0 0 213 452" fill="none" xmlns="http://www.w3.org/2000/svg">
<path d="M36.0001 443.294L23.9943 443.294L23.9943 434.654L26.5123 434.654L26.5123 439.998L28.6569 439.998L28.6569 436.597L31.1749 436.597L31.1749 439.998L33.4821 439.998L33.4821 434.404L36.0001 434.404L36.0001 443.294ZM36.0001 432.958L23.9943 432.958L23.9943 427.452C23.9943 426.47 24.1378 425.635 24.4249 424.947C24.712 424.258 25.1324 423.735 25.6862 423.378C26.2399 423.021 26.9064 422.842 27.6857 422.842C28.3566 422.842 28.9689 422.991 29.5226 423.29C30.0734 423.586 30.4982 423.995 30.797 424.516C31.0314 424.938 31.1984 425.392 31.298 425.878C31.3976 426.365 31.4474 426.973 31.4474 427.702L31.4474 429.662L36.0001 429.662L36.0001 432.958ZM26.2794 429.662L29.0699 429.662L29.0699 428.045C29.0699 427.424 28.963 426.977 28.7491 426.705C28.5353 426.432 28.1866 426.296 27.7032 426.296C27.2199 426.296 26.8624 426.432 26.631 426.705C26.3966 426.977 26.2794 427.424 26.2794 428.045L26.2794 429.662ZM36.0001 421.216L23.9943 421.216L23.9943 417.92L28.6217 417.92L28.6217 414.576L23.9943 414.576L23.9943 411.262L36.0001 411.262L36.0001 414.576L31.1398 414.576L31.1398 417.92L36.0001 417.92L36.0001 421.216ZM36.0001 408.999L23.9943 408.999L23.9943 400.359L26.5123 400.359L26.5123 405.703L28.6569 405.703L28.6569 402.302L31.1749 402.302L31.1749 405.703L33.4821 405.703L33.4821 400.109L36.0001 400.109L36.0001 408.999ZM36.0001 398.646L23.9943 398.646L23.9943 393.895L29.9533 392.093L23.9943 390.186L23.9943 385.471L36.0001 385.471L36.0001 388.762L27.3605 388.762L36.0001 391.465L36.0001 393.425L27.3605 396.07L36.0001 396.07L36.0001 398.646ZM36.0001 383.194L23.9943 383.194L23.9943 374.555L26.5123 374.555L26.5123 379.898L28.6569 379.898L28.6569 376.497L31.1749 376.497L31.1749 379.898L33.4821 379.898L33.4821 374.304L36.0001 374.304L36.0001 383.194ZM36.0001 372.858L23.9943 372.858L23.9943 367.603C23.9943 366.492 24.1085 365.574 24.337 364.847C24.5333 364.208 24.9186 363.69 25.4928 363.292C26.0641 362.89 26.7042 362.689 27.4132 362.689C28.2745 362.689 28.9894 362.965 29.5577 363.516C29.88 363.82 30.1788 364.283 30.4542 364.904L36.0001 362.725L36.0001 366.416L31.0343 368.068L31.0343 369.58L36.0001 369.58L36.0001 372.858ZM26.2794 369.58L28.7843 369.58L28.7843 367.638C28.7843 367.169 28.673 366.803 28.4503 366.539C28.2277 366.275 27.9186 366.144 27.5231 366.144C27.1276 366.144 26.8214 366.274 26.6046 366.535C26.3878 366.792 26.2794 367.16 26.2794 367.638L26.2794 369.58ZM36.0001 362.215L23.9943 358.436L23.9943 354.674L36.0001 350.947L36.0001 354.371L33.6227 355.052L33.6227 358.831L36.0001 359.499L36.0001 362.215ZM31.1046 358.075L31.1046 355.737L27.0704 356.906L31.1046 358.075Z" fill="white"/>
<path d="M21.0157 344.559C17.6486 344.559 14.7111 343.961 12.2032 342.766C9.69544 341.57 7.77747 339.879 6.44934 337.691C5.12122 335.504 4.45716 332.992 4.45716 330.156C4.45716 327.828 4.87903 325.766 5.72278 323.969C6.55872 322.164 7.72278 320.656 9.21497 319.445C10.7072 318.234 12.4103 317.328 14.3243 316.727C16.2384 316.117 18.2775 315.813 20.4415 315.813C22.7775 315.813 24.9806 316.098 27.0509 316.668C29.1212 317.23 30.9415 318.094 32.5118 319.258C34.0822 320.414 35.3204 321.914 36.2267 323.758C37.1251 325.594 37.5743 327.727 37.5743 330.156C37.5743 332.172 37.2267 334.055 36.5314 335.805C35.8361 337.547 34.797 339.078 33.4142 340.398C32.0236 341.711 30.2892 342.734 28.2111 343.469C26.1251 344.195 23.7267 344.559 21.0157 344.559ZM21.0157 335.348C27.797 335.348 31.1876 333.617 31.1876 330.156C31.1876 328.219 30.2462 326.879 28.3634 326.137C26.4806 325.395 23.8556 325.023 20.4884 325.023C14.0587 325.023 10.8439 326.734 10.8439 330.156C10.8439 331.43 11.2579 332.449 12.0861 333.215C12.9142 333.98 14.0822 334.527 15.59 334.855C17.09 335.184 18.8986 335.348 21.0157 335.348ZM37.0001 311.336L4.9845 311.336L4.9845 295.398C4.9845 292.773 5.43372 290.629 6.33216 288.965C7.0431 287.598 7.99622 286.539 9.19154 285.789C10.379 285.031 11.6798 284.652 13.0939 284.652C16.5079 284.652 18.9728 286.73 20.4884 290.887C20.965 289.41 21.4611 288.242 21.9767 287.383C22.4142 286.648 22.9533 286.023 23.5939 285.508C24.2267 284.992 24.9493 284.602 25.7618 284.336C26.5743 284.063 27.4259 283.926 28.3165 283.926C30.3947 283.926 32.1525 284.48 33.59 285.59C35.0197 286.699 35.965 288.227 36.4259 290.172C36.8087 291.695 37.0001 293.773 37.0001 296.406L37.0001 311.336ZM30.9064 302.547L30.9064 299.09C30.9064 297.027 30.7618 295.637 30.4728 294.918C30.0118 293.738 29.0353 293.148 27.5431 293.148C26.09 293.148 25.0822 293.738 24.5197 294.918C24.0743 295.762 23.8517 297.074 23.8517 298.855L23.8517 302.547L30.9064 302.547ZM17.6056 302.547L17.6056 297.895C17.6056 296.34 17.3439 295.223 16.8204 294.543C16.297 293.863 15.4376 293.523 14.2423 293.523C12.1329 293.523 11.0783 294.98 11.0783 297.895L11.0783 302.547L17.6056 302.547ZM37.0001 279.414L4.98451 279.414L4.98451 270.625L30.2853 270.625L30.2853 256.949L37.0001 256.949L37.0001 279.414ZM37.0001 253.305L4.98451 253.305L4.98451 244.516L37.0001 244.516L37.0001 253.305ZM37.0001 231.531L4.98451 241.715L4.98451 232.926L26.4415 226.691L4.98451 220.398L4.98451 212.91L37.0001 222.941L37.0001 231.531ZM37.0001 210.227L4.98451 210.227L4.98452 201.438L37.0001 201.438L37.0001 210.227ZM21.0158 196.902C17.6486 196.902 14.7111 196.305 12.2033 195.109C9.69545 193.914 7.77749 192.223 6.44936 190.035C5.12124 187.848 4.45717 185.336 4.45717 182.5C4.45718 180.172 4.87905 178.109 5.7228 176.313C6.55874 174.508 7.7228 173 9.21499 171.789C10.7072 170.578 12.4103 169.672 14.3244 169.07C16.2384 168.461 18.2775 168.156 20.4416 168.156C22.7775 168.156 24.9806 168.441 27.0509 169.012C29.1212 169.574 30.9416 170.438 32.5119 171.602C34.0822 172.758 35.3205 174.258 36.2267 176.102C37.1251 177.938 37.5744 180.07 37.5744 182.5C37.5744 184.516 37.2267 186.398 36.5314 188.148C35.8361 189.891 34.797 191.422 33.4142 192.742C32.0236 194.055 30.2892 195.078 28.2111 195.813C26.1251 196.539 23.7267 196.902 21.0158 196.902ZM21.0158 187.691C27.797 187.691 31.1876 185.961 31.1876 182.5C31.1876 180.563 30.2462 179.223 28.3634 178.48C26.4806 177.738 23.8556 177.367 20.4884 177.367C14.0587 177.367 10.8439 179.078 10.8439 182.5C10.8439 183.773 11.258 184.793 12.0861 185.559C12.9142 186.324 14.0822 186.871 15.59 187.199C17.09 187.527 18.8986 187.691 21.0158 187.691ZM37.0001 163.68L4.98452 163.68L4.98452 155.664L21.2619 144.332L4.98452 144.332L4.98452 137.418L37.0001 137.418L37.0001 144.332L18.8595 156.813L37.0001 156.813L37.0001 163.68Z" fill="white"/>
<path d="M83.0001 449.981L70.9943 449.981L70.9943 446.686L80.4821 446.686L80.4821 441.557L83.0001 441.557L83.0001 449.981ZM83.0001 440.586L70.9943 436.807L70.9943 433.045L83.0001 429.318L83.0001 432.742L80.6227 433.423L80.6227 437.202L83.0001 437.87L83.0001 440.586ZM78.1046 436.446L78.1046 434.108L74.0704 435.277L78.1046 436.446ZM78.7155 421L79.2736 418.569C79.8976 418.736 80.4528 418.972 80.9391 419.277C81.4225 419.579 81.8341 419.942 82.174 420.367C82.5138 420.792 82.7731 421.271 82.9518 421.804C83.1276 422.337 83.2155 422.91 83.2155 423.522C83.2155 424.266 83.0353 425.045 82.6749 425.86C82.3146 426.674 81.6862 427.373 80.7897 427.956C79.8903 428.539 78.7008 428.831 77.2213 428.831C76.3571 428.831 75.5382 428.718 74.7648 428.492C73.9884 428.267 73.3014 427.927 72.7037 427.473C72.1061 427.016 71.6388 426.444 71.3019 425.759C70.965 425.07 70.7965 424.276 70.7965 423.377C70.7965 422.454 70.9987 421.626 71.403 420.894C71.8073 420.159 72.3346 419.587 72.985 419.18C73.6325 418.773 74.3004 418.569 74.9889 418.569L75.1515 421.65C73.8449 421.805 73.1915 422.375 73.1915 423.359C73.1915 424.051 73.5167 424.561 74.1671 424.889C74.8146 425.214 75.8268 425.376 77.2037 425.376C78.0241 425.376 78.6935 425.302 79.212 425.152C79.7277 425.003 80.11 424.771 80.359 424.458C80.608 424.145 80.7325 423.742 80.7325 423.25C80.7325 422.751 80.6139 422.347 80.3766 422.037C80.1393 421.723 79.8932 421.503 79.6383 421.377C79.3834 421.249 79.0758 421.123 78.7155 421ZM70.9943 417.04L70.9943 413.749L78.0343 413.749C78.5704 413.749 78.9674 413.728 79.2252 413.687C79.483 413.643 79.7218 413.561 79.9415 413.441C80.1847 413.294 80.3781 413.078 80.5216 412.791C80.6622 412.503 80.7325 412.193 80.7325 411.859C80.7325 411.466 80.6373 411.109 80.4469 410.787C80.2565 410.464 80.0089 410.245 79.7042 410.127C79.3702 409.996 78.8136 409.93 78.0343 409.93L70.9943 409.93L70.9943 407.337L78.5704 407.337C79.3117 407.337 79.9034 407.4 80.3458 407.526C80.7853 407.652 81.2086 407.877 81.6159 408.203C81.9528 408.478 82.2413 408.819 82.4816 409.227C82.7218 409.631 82.9034 410.088 83.0265 410.598C83.1525 411.104 83.2155 411.651 83.2155 412.237C83.2155 412.723 83.1774 413.177 83.1012 413.599C83.025 414.021 82.9108 414.409 82.7584 414.764C82.6032 415.118 82.4142 415.432 82.1915 415.704C81.9689 415.977 81.7169 416.201 81.4357 416.376C81.049 416.628 80.6476 416.803 80.2316 416.899C79.8126 416.993 79.2589 417.04 78.5704 417.04L70.9943 417.04ZM83.0001 405.122L70.9943 405.122L70.9943 402.116L77.0983 397.867L70.9943 397.867L70.9943 395.274L83.0001 395.274L83.0001 397.867L76.1974 402.547L83.0001 402.547L83.0001 405.122ZM83.0001 394.215L70.9943 390.436L70.9943 386.674L83.0001 382.947L83.0001 386.371L80.6227 387.052L80.6227 390.831L83.0001 391.499L83.0001 394.215ZM78.1046 390.075L78.1046 387.737L74.0704 388.906L78.1046 390.075Z" fill="white"/>
<path d="M83.0001 373.109L50.9845 383.293L50.9845 374.504L72.4415 368.27L50.9845 361.977L50.9845 354.488L83.0001 364.52L83.0001 373.109ZM83.0001 351.805L50.9845 351.805L50.9845 328.766L57.6993 328.766L57.6993 343.016L63.4181 343.016L63.4181 333.945L70.1329 333.945L70.1329 343.016L76.2853 343.016L76.2853 328.098L83.0001 328.098L83.0001 351.805ZM83.0001 324.195L50.9845 324.195L50.9845 315.406L76.2853 315.406L76.2853 301.73L83.0001 301.73L83.0001 324.195ZM83.0001 298.039L50.9845 298.039L50.9845 289.25L76.2853 289.25L76.2853 275.574L83.0001 275.574L83.0001 298.039ZM83.0001 271.93L50.9845 271.93L50.9845 263.141L83.0001 263.141L83.0001 271.93ZM71.5744 237.723L73.0626 231.242C74.7267 231.688 76.2072 232.316 77.504 233.129C78.7931 233.934 79.8908 234.902 80.797 236.035C81.7033 237.168 82.3947 238.445 82.8712 239.867C83.34 241.289 83.5744 242.816 83.5744 244.449C83.5744 246.434 83.0939 248.512 82.133 250.684C81.172 252.855 79.4962 254.719 77.1056 256.273C74.7072 257.828 71.5353 258.605 67.59 258.605C65.2853 258.605 63.1017 258.305 61.0392 257.703C58.9689 257.102 57.1369 256.195 55.5431 254.984C53.9494 253.766 52.7033 252.242 51.8048 250.414C50.9064 248.578 50.4572 246.461 50.4572 244.063C50.4572 241.602 50.9962 239.395 52.0744 237.441C53.1525 235.48 54.5587 233.957 56.2931 232.871C58.0197 231.785 59.8009 231.242 61.6369 231.242L62.0705 239.457C58.5861 239.871 56.8439 241.391 56.8439 244.016C56.8439 245.859 57.7111 247.219 59.4455 248.094C61.172 248.961 63.8712 249.395 67.5431 249.395C69.7306 249.395 71.5158 249.195 72.8986 248.797C74.2736 248.398 75.2931 247.781 75.9572 246.945C76.6212 246.109 76.9533 245.035 76.9533 243.723C76.9533 242.395 76.6369 241.316 76.004 240.488C75.3712 239.652 74.715 239.066 74.0353 238.73C73.3556 238.387 72.5353 238.051 71.5744 237.723ZM83.0001 227.023L50.9845 227.023L50.9845 218.234L63.3244 218.234L63.3244 209.316L50.9845 209.316L50.9845 200.48L83.0001 200.48L83.0001 209.316L70.0392 209.316L70.0392 218.234L83.0001 218.234L83.0001 227.023ZM67.0158 196.027C63.6486 196.027 60.7111 195.43 58.2033 194.234C55.6955 193.039 53.7775 191.348 52.4494 189.16C51.1212 186.973 50.4572 184.461 50.4572 181.625C50.4572 179.297 50.8791 177.234 51.7228 175.438C52.5587 173.633 53.7228 172.125 55.215 170.914C56.7072 169.703 58.4103 168.797 60.3244 168.195C62.2384 167.586 64.2775 167.281 66.4416 167.281C68.7775 167.281 70.9806 167.566 73.0509 168.137C75.1212 168.699 76.9416 169.563 78.5119 170.727C80.0822 171.883 81.3205 173.383 82.2267 175.227C83.1251 177.063 83.5744 179.195 83.5744 181.625C83.5744 183.641 83.2267 185.523 82.5314 187.273C81.8361 189.016 80.797 190.547 79.4142 191.867C78.0236 193.18 76.2892 194.203 74.2111 194.938C72.1251 195.664 69.7267 196.027 67.0158 196.027ZM67.0158 186.816C73.797 186.816 77.1876 185.086 77.1876 181.625C77.1876 179.688 76.2462 178.348 74.3634 177.605C72.4806 176.863 69.8556 176.492 66.4884 176.492C60.0587 176.492 56.8439 178.203 56.8439 181.625C56.8439 182.898 57.258 183.918 58.0861 184.684C58.9142 185.449 60.0822 185.996 61.59 186.324C63.09 186.652 64.8986 186.816 67.0158 186.816ZM83.0002 162.805L50.9845 162.805L50.9845 148.789C50.9845 145.828 51.2892 143.379 51.8986 141.441C52.422 139.738 53.4494 138.355 54.9806 137.293C56.5041 136.223 58.2111 135.688 60.1017 135.688C62.3986 135.688 64.3048 136.422 65.8205 137.891C66.6798 138.703 67.4767 139.938 68.2111 141.594L83.0002 135.781L83.0002 145.625L69.758 150.031L69.758 154.063L83.0002 154.063L83.0002 162.805ZM57.0783 154.063L63.758 154.063L63.758 148.883C63.758 147.633 63.4611 146.656 62.8673 145.953C62.2736 145.25 61.4494 144.898 60.3947 144.898C59.34 144.898 58.5236 145.246 57.9455 145.941C57.3673 146.629 57.0783 147.609 57.0783 148.883L57.0783 154.063Z" fill="white"/>
<path d="M180 401.977L147.984 401.977L147.985 378.938L154.699 378.938L154.699 393.188L160.418 393.188L160.418 384.117L167.133 384.117L167.133 393.188L173.285 393.188L173.285 378.27L180 378.27L180 401.977ZM147.985 374.555L147.985 365.777L166.758 365.777C168.188 365.777 169.246 365.723 169.934 365.613C170.621 365.496 171.258 365.277 171.844 364.957C172.492 364.566 173.008 363.988 173.391 363.223C173.766 362.457 173.953 361.629 173.953 360.738C173.953 359.691 173.699 358.738 173.192 357.879C172.684 357.02 172.024 356.434 171.211 356.121C170.32 355.77 168.836 355.594 166.758 355.594L147.985 355.594L147.985 348.68L168.188 348.68C170.164 348.68 171.742 348.848 172.922 349.184C174.094 349.52 175.223 350.121 176.309 350.988C177.207 351.723 177.977 352.633 178.617 353.719C179.258 354.797 179.742 356.016 180.07 357.375C180.406 358.727 180.574 360.184 180.574 361.746C180.574 363.043 180.473 364.254 180.27 365.379C180.067 366.504 179.762 367.539 179.356 368.484C178.942 369.43 178.438 370.266 177.844 370.992C177.25 371.719 176.578 372.316 175.828 372.785C174.797 373.457 173.727 373.922 172.617 374.18C171.5 374.43 170.024 374.555 168.188 374.555L147.985 374.555ZM180 342.773L147.985 342.773L147.985 334.758L164.262 323.426L147.985 323.426L147.985 316.512L180 316.512L180 323.426L161.86 335.906L180 335.906L180 342.773ZM164.016 312.059C160.649 312.059 157.711 311.461 155.203 310.266C152.695 309.07 150.777 307.379 149.449 305.191C148.121 303.004 147.457 300.492 147.457 297.656C147.457 295.328 147.879 293.266 148.723 291.469C149.559 289.664 150.723 288.156 152.215 286.945C153.707 285.734 155.41 284.828 157.324 284.227C159.238 283.617 161.277 283.313 163.442 283.313C165.777 283.313 167.981 283.598 170.051 284.168C172.121 284.73 173.942 285.594 175.512 286.758C177.082 287.914 178.32 289.414 179.227 291.258C180.125 293.094 180.574 295.227 180.574 297.656C180.574 299.672 180.227 301.555 179.531 303.305C178.836 305.047 177.797 306.578 176.414 307.898C175.024 309.211 173.289 310.234 171.211 310.969C169.125 311.695 166.727 312.059 164.016 312.059ZM164.016 302.848C170.797 302.848 174.188 301.117 174.188 297.656C174.188 295.719 173.246 294.379 171.363 293.637C169.481 292.895 166.856 292.523 163.488 292.523C157.059 292.523 153.844 294.234 153.844 297.656C153.844 298.93 154.258 299.949 155.086 300.715C155.914 301.48 157.082 302.027 158.59 302.355C160.09 302.684 161.899 302.848 164.016 302.848ZM180 278.836L147.985 278.836L147.985 270.047L180 270.047L180 278.836ZM180 267.141L147.985 257.063L147.985 247.031L180 237.094L180 246.223L173.66 248.039L173.66 258.117L180 259.898L180 267.141ZM166.945 256.102L166.945 249.867L156.188 252.984L166.945 256.102Z" fill="white"/>
<path d="M196.527 236.852L192.262 231.426C193.715 230.559 194.766 229.539 195.414 228.367C196.063 227.188 196.387 225.711 196.387 223.938C196.387 222.43 196.121 221.23 195.59 220.34C195.051 219.441 194.34 218.992 193.457 218.992C192.309 218.992 191.434 219.961 190.832 221.898C190.223 223.836 189.625 225.852 189.039 227.945C188.445 230.031 187.453 231.82 186.063 233.313C184.664 234.805 182.551 235.551 179.723 235.551C177.746 235.551 175.977 235.023 174.414 233.969C172.844 232.914 171.625 231.445 170.758 229.563C169.891 227.672 169.457 225.539 169.457 223.164C169.457 218.297 171.121 214.508 174.449 211.797L178.621 216.93C177.512 217.875 176.723 218.805 176.254 219.719C175.785 220.633 175.551 221.719 175.551 222.977C175.551 224.25 175.805 225.297 176.313 226.117C176.82 226.938 177.461 227.348 178.234 227.348C179.352 227.348 180.184 226.398 180.731 224.5C181.27 222.602 181.824 220.563 182.395 218.383C182.965 216.195 183.961 214.344 185.383 212.828C186.797 211.305 188.961 210.543 191.875 210.543C194.016 210.543 195.895 211.07 197.512 212.125C199.129 213.172 200.379 214.66 201.262 216.59C202.137 218.52 202.574 220.746 202.574 223.27C202.574 229.832 200.559 234.359 196.527 236.852ZM202 205.914L169.985 205.914L169.985 182.875L176.699 182.875L176.699 197.125L182.418 197.125L182.418 188.055L189.133 188.055L189.133 197.125L195.285 197.125L195.285 182.207L202 182.207L202 205.914ZM202 178.352L169.985 178.352L169.985 164.336C169.985 161.375 170.289 158.926 170.899 156.988C171.422 155.285 172.449 153.902 173.981 152.84C175.504 151.77 177.211 151.234 179.102 151.234C181.399 151.234 183.305 151.969 184.82 153.438C185.68 154.25 186.477 155.484 187.211 157.141L202 151.328L202 161.172L188.758 165.578L188.758 169.609L202 169.609L202 178.352ZM176.078 169.609L182.758 169.609L182.758 164.43C182.758 163.18 182.461 162.203 181.867 161.5C181.274 160.797 180.449 160.445 179.395 160.445C178.34 160.445 177.524 160.793 176.945 161.488C176.367 162.176 176.078 163.156 176.078 164.43L176.078 169.609ZM202 149.969L169.985 139.891L169.985 129.859L202 119.922L202 129.051L195.66 130.867L195.66 140.945L202 142.727L202 149.969ZM188.945 138.93L188.945 132.695L178.188 135.813L188.945 138.93ZM202 117.039L169.985 117.039L169.985 102.355C169.985 99.7383 170.367 97.5117 171.133 95.6758C171.899 93.8398 173.02 92.4453 174.496 91.4922C175.973 90.5391 177.75 90.0625 179.828 90.0625C181.617 90.0625 183.25 90.4609 184.727 91.2578C186.195 92.0469 187.328 93.1367 188.125 94.5273C188.75 95.6523 189.195 96.8633 189.461 98.1602C189.727 99.457 189.86 101.078 189.86 103.023L189.86 108.25L202 108.25L202 117.039ZM176.078 108.25L183.52 108.25L183.52 103.938C183.52 102.281 183.235 101.09 182.664 100.363C182.094 99.6367 181.164 99.2734 179.875 99.2734C178.586 99.2734 177.633 99.6367 177.016 100.363C176.391 101.09 176.078 102.281 176.078 103.938L176.078 108.25ZM202 85.7266L169.985 85.7266L169.985 76.9375L182.324 76.9375L182.324 68.0195L169.985 68.0195L169.985 59.1836L202 59.1836L202 68.0195L189.039 68.0195L189.039 76.9375L202 76.9375L202 85.7266ZM202 53.1484L169.985 53.1484L169.985 44.3594L202 44.3594L202 53.1484ZM202 38.1953L169.985 38.1953L169.985 25.5273L185.875 20.7227L169.985 15.6367L169.985 3.0625L202 3.0625L202 11.8398L178.961 11.8398L202 19.0469L202 24.2734L178.961 31.3281L202 31.3281L202 38.1953Z" fill="white"/>
<path d="M105 323.778L92.9943 323.778L92.9943 315.139L95.5123 315.139L95.5123 320.482L97.6569 320.482L97.6569 317.081L100.175 317.081L100.175 320.482L102.482 320.482L102.482 314.888L105 314.888L105 323.778ZM92.9943 313.495L92.9943 310.204L100.034 310.204C100.57 310.204 100.967 310.183 101.225 310.142C101.483 310.098 101.722 310.016 101.942 309.896C102.185 309.75 102.378 309.533 102.522 309.246C102.662 308.958 102.733 308.648 102.733 308.314C102.733 307.921 102.637 307.564 102.447 307.242C102.256 306.919 102.009 306.7 101.704 306.583C101.37 306.451 100.814 306.385 100.034 306.385L92.9943 306.385L92.9943 303.792L100.57 303.792C101.312 303.792 101.903 303.855 102.346 303.981C102.785 304.107 103.209 304.333 103.616 304.658C103.953 304.933 104.241 305.274 104.482 305.682C104.722 306.086 104.903 306.543 105.026 307.053C105.152 307.56 105.215 308.106 105.215 308.692C105.215 309.178 105.177 309.632 105.101 310.054C105.025 310.476 104.911 310.864 104.758 311.219C104.603 311.573 104.414 311.887 104.192 312.159C103.969 312.432 103.717 312.656 103.436 312.832C103.049 313.083 102.648 313.258 102.232 313.354C101.813 313.448 101.259 313.495 100.57 313.495L92.9943 313.495ZM105 301.577L92.9943 301.577L92.9943 298.571L99.0983 294.322L92.9943 294.322L92.9943 291.729L105 291.729L105 294.322L98.1974 299.002L105 299.002L105 301.577ZM99.006 290.059C97.7433 290.059 96.6417 289.835 95.7013 289.387C94.7609 288.938 94.0416 288.304 93.5436 287.484C93.0455 286.664 92.7965 285.722 92.7965 284.658C92.7965 283.785 92.9547 283.012 93.2711 282.338C93.5846 281.661 94.0211 281.096 94.5807 280.642C95.1403 280.188 95.7789 279.848 96.4967 279.622C97.2145 279.394 97.9791 279.279 98.7907 279.279C99.6666 279.279 100.493 279.386 101.269 279.6C102.046 279.811 102.728 280.135 103.317 280.571C103.906 281.005 104.37 281.567 104.71 282.259C105.047 282.947 105.215 283.747 105.215 284.658C105.215 285.414 105.085 286.12 104.824 286.776C104.564 287.43 104.174 288.004 103.655 288.499C103.134 288.991 102.484 289.375 101.704 289.65C100.922 289.923 100.023 290.059 99.006 290.059ZM99.006 286.605C101.549 286.605 102.82 285.956 102.82 284.658C102.82 283.932 102.467 283.429 101.761 283.151C101.055 282.873 100.071 282.733 98.8082 282.733C96.3971 282.733 95.1915 283.375 95.1915 284.658C95.1915 285.136 95.3468 285.518 95.6574 285.805C95.9679 286.092 96.4059 286.297 96.9713 286.42C97.5338 286.543 98.212 286.605 99.006 286.605ZM105 277.601L92.9943 277.601L92.9943 274.305L105 274.305L105 277.601ZM105 273.215L92.9943 269.436L92.9943 265.674L105 261.947L105 265.371L102.623 266.052L102.623 269.831L105 270.499L105 273.215ZM100.105 269.075L100.105 266.737L96.0704 267.906L100.105 269.075Z" fill="white"/>
<path d="M111 256.849L98.9943 256.849L98.9943 253.553L108.482 253.553L108.482 248.424L111 248.424L111 256.849ZM111 247.058L98.9943 247.058L98.9943 243.762L111 243.762L111 247.058ZM111 241.45L98.9943 241.45L98.9943 236.7L104.953 234.898L98.9943 232.991L98.9943 228.275L111 228.275L111 231.567L102.36 231.567L111 234.27L111 236.229L102.36 238.875L111 238.875L111 241.45ZM111 225.999L98.9943 225.999L98.9943 217.359L101.512 217.359L101.512 222.703L103.657 222.703L103.657 219.302L106.175 219.302L106.175 222.703L108.482 222.703L108.482 217.109L111 217.109L111 225.999ZM111 215.663L98.9943 215.663L98.9943 210.407C98.9943 209.297 99.1085 208.378 99.337 207.652C99.5333 207.013 99.9186 206.495 100.493 206.096C101.064 205.695 101.704 205.494 102.413 205.494C103.275 205.494 103.989 205.77 104.558 206.32C104.88 206.625 105.179 207.088 105.454 207.709L111 205.529L111 209.221L106.034 210.873L106.034 212.385L111 212.385L111 215.663ZM101.279 212.385L103.784 212.385L103.784 210.442C103.784 209.974 103.673 209.607 103.45 209.344C103.228 209.08 102.919 208.948 102.523 208.948C102.128 208.948 101.821 209.079 101.605 209.339C101.388 209.597 101.279 209.965 101.279 210.442L101.279 212.385ZM111 203.815L98.9943 203.815L98.9943 195.176L101.512 195.176L101.512 200.52L103.657 200.52L103.657 197.118L106.175 197.118L106.175 200.52L108.482 200.52L108.482 194.925L111 194.925L111 203.815ZM111 193.479L98.9943 193.479L98.9943 190.474L105.098 186.224L98.9943 186.224L98.9943 183.631L111 183.631L111 186.224L104.197 190.904L111 190.904L111 193.479ZM106.715 174.13L107.274 171.7C107.898 171.867 108.453 172.103 108.939 172.408C109.422 172.709 109.834 173.073 110.174 173.498C110.514 173.922 110.773 174.401 110.952 174.935C111.128 175.468 111.215 176.041 111.215 176.653C111.215 177.397 111.035 178.176 110.675 178.991C110.315 179.805 109.686 180.504 108.79 181.087C107.89 181.67 106.701 181.961 105.221 181.961C104.357 181.961 103.538 181.849 102.765 181.623C101.988 181.397 101.301 181.058 100.704 180.604C100.106 180.146 99.6388 179.575 99.3019 178.89C98.965 178.201 98.7965 177.407 98.7965 176.508C98.7965 175.585 98.9987 174.757 99.403 174.025C99.8073 173.29 100.335 172.718 100.985 172.311C101.632 171.904 102.3 171.7 102.989 171.7L103.152 174.781C101.845 174.936 101.192 175.506 101.192 176.49C101.192 177.182 101.517 177.691 102.167 178.02C102.815 178.345 103.827 178.507 105.204 178.507C106.024 178.507 106.693 178.433 107.212 178.283C107.728 178.134 108.11 177.902 108.359 177.589C108.608 177.275 108.733 176.873 108.733 176.38C108.733 175.882 108.614 175.478 108.377 175.167C108.139 174.854 107.893 174.634 107.638 174.508C107.383 174.379 107.076 174.253 106.715 174.13ZM111 170.118L98.9943 170.118L98.9943 161.479L101.512 161.479L101.512 166.822L103.657 166.822L103.657 163.421L106.175 163.421L106.175 166.822L108.482 166.822L108.482 161.228L111 161.228L111 170.118Z" fill="white"/>
<path d="M105 154.866L92.9943 154.866L92.9943 146.227L95.5123 146.227L95.5123 151.57L97.6569 151.57L97.6569 148.169L100.175 148.169L100.175 151.57L102.482 151.57L102.482 145.976L105 145.976L105 154.866ZM105 144.53L92.9943 144.53L92.9943 139.024C92.9943 138.042 93.1378 137.208 93.4249 136.519C93.712 135.831 94.1324 135.308 94.6862 134.95C95.2399 134.593 95.9064 134.414 96.6857 134.414C97.3566 134.414 97.9689 134.563 98.5226 134.862C99.0734 135.158 99.4982 135.567 99.797 136.088C100.031 136.51 100.198 136.964 100.298 137.451C100.398 137.937 100.447 138.545 100.447 139.274L100.447 141.234L105 141.234L105 144.53ZM95.2794 141.234L98.0699 141.234L98.0699 139.617C98.0699 138.996 97.963 138.549 97.7491 138.277C97.5353 138.004 97.1866 137.868 96.7032 137.868C96.2199 137.868 95.8624 138.004 95.631 138.277C95.3966 138.549 95.2794 138.996 95.2794 139.617L95.2794 141.234ZM105 132.788L92.9943 132.788L92.9943 129.492L97.6217 129.492L97.6217 126.148L92.9943 126.148L92.9943 122.834L105 122.834L105 126.148L100.14 126.148L100.14 129.492L105 129.492L105 132.788ZM105 120.571L92.9943 120.571L92.9943 111.932L95.5123 111.932L95.5123 117.275L97.6569 117.275L97.6569 113.874L100.175 113.874L100.175 117.275L102.482 117.275L102.482 111.681L105 111.681L105 120.571ZM105 110.218L92.9943 110.218L92.9943 105.467L98.9533 103.666L92.9943 101.758L92.9943 97.043L105 97.043L105 100.334L96.3605 100.334L105 103.037L105 104.997L96.3605 107.643L105 107.643L105 110.218ZM105 94.7666L92.9943 94.7666L92.9943 86.127L95.5123 86.127L95.5123 91.4707L97.6569 91.4707L97.6569 88.0693L100.175 88.0693L100.175 91.4707L102.482 91.4707L102.482 85.8765L105 85.8765L105 94.7666ZM105 84.4307L92.9943 84.4307L92.9943 79.1748C92.9943 78.0645 93.1085 77.146 93.337 76.4194C93.5333 75.7808 93.9186 75.2622 94.4928 74.8638C95.0641 74.4624 95.7042 74.2617 96.4132 74.2617C97.2745 74.2617 97.9894 74.5371 98.5577 75.0879C98.88 75.3926 99.1788 75.8555 99.4542 76.4766L105 74.2969L105 77.9883L100.034 79.6406L100.034 81.1523L105 81.1523L105 84.4307ZM95.2794 81.1523L97.7843 81.1523L97.7843 79.21C97.7843 78.7412 97.673 78.375 97.4503 78.1113C97.2277 77.8477 96.9186 77.7158 96.5231 77.7158C96.1276 77.7158 95.8214 77.8462 95.6046 78.1069C95.3878 78.3647 95.2794 78.7324 95.2794 79.21L95.2794 81.1523ZM105 73.7871L92.9943 70.0078L92.9943 66.2461L105 62.5195L105 65.9429L102.623 66.624L102.623 70.4033L105 71.0713L105 73.7871ZM100.105 69.6475L100.105 67.3096L96.0704 68.4785L100.105 69.6475Z" fill="white"/>
<path d="M104.72 415.416L102.943 413.155C103.548 412.794 103.986 412.369 104.256 411.881C104.526 411.389 104.661 410.774 104.661 410.035C104.661 409.407 104.551 408.907 104.329 408.536C104.105 408.162 103.808 407.975 103.441 407.975C102.962 407.975 102.597 408.378 102.347 409.186C102.093 409.993 101.844 410.833 101.6 411.705C101.352 412.574 100.939 413.32 100.359 413.941C99.7768 414.563 98.8963 414.874 97.7179 414.874C96.8943 414.874 96.157 414.654 95.506 414.215C94.8517 413.775 94.3439 413.163 93.9825 412.379C93.6212 411.591 93.4406 410.702 93.4406 409.713C93.4406 407.685 94.1339 406.106 95.5206 404.977L97.2589 407.115C96.7967 407.509 96.4679 407.896 96.2726 408.277C96.0773 408.658 95.9796 409.111 95.9796 409.635C95.9796 410.165 96.0854 410.602 96.297 410.943C96.5086 411.285 96.7755 411.456 97.0978 411.456C97.5633 411.456 97.91 411.061 98.1378 410.27C98.3624 409.479 98.5935 408.629 98.8312 407.721C99.0688 406.809 99.4838 406.038 100.076 405.406C100.665 404.771 101.567 404.454 102.781 404.454C103.673 404.454 104.456 404.674 105.13 405.113C105.804 405.549 106.325 406.17 106.693 406.974C107.057 407.778 107.239 408.705 107.239 409.757C107.239 412.491 106.4 414.378 104.72 415.416ZM107 404.469L93.6603 400.27L93.6603 396.09L107 391.949L107 395.753L104.359 396.51L104.359 400.709L107 401.451L107 404.469ZM101.561 399.869L101.561 397.271L97.0782 398.57L101.561 399.869ZM93.6603 390.807L93.6603 387.149L101.483 387.149C102.078 387.149 102.519 387.127 102.806 387.081C103.092 387.032 103.358 386.941 103.602 386.808C103.872 386.645 104.087 386.404 104.246 386.085C104.402 385.766 104.481 385.421 104.481 385.05C104.481 384.614 104.375 384.216 104.163 383.858C103.952 383.5 103.677 383.256 103.338 383.126C102.967 382.979 102.348 382.906 101.483 382.906L93.6603 382.906L93.6603 380.025L102.078 380.025C102.902 380.025 103.559 380.095 104.051 380.235C104.539 380.375 105.01 380.626 105.462 380.987C105.836 381.293 106.157 381.673 106.424 382.125C106.691 382.574 106.893 383.082 107.029 383.648C107.169 384.212 107.239 384.819 107.239 385.47C107.239 386.01 107.197 386.515 107.112 386.983C107.028 387.452 106.901 387.883 106.732 388.277C106.559 388.671 106.349 389.02 106.102 389.322C105.854 389.625 105.574 389.874 105.262 390.069C104.832 390.349 104.386 390.543 103.924 390.65C103.458 390.755 102.843 390.807 102.078 390.807L93.6603 390.807ZM107 377.564L93.6603 377.564L93.6603 372.965C93.6603 371.318 94.0607 369.884 94.8615 368.663C95.9943 366.983 97.8139 366.144 100.32 366.144C101.61 366.144 102.734 366.375 103.694 366.837C104.655 367.299 105.416 367.975 105.98 368.863C106.608 369.892 106.942 370.951 106.981 372.042C106.994 372.218 107 372.532 107 372.984L107 377.564ZM96.3409 373.902L104.378 373.902C104.372 372.932 104.235 372.162 103.968 371.593C103.698 371.023 103.263 370.613 102.664 370.362C102.065 370.112 101.25 369.986 100.218 369.986C98.3559 369.986 97.1694 370.566 96.6583 371.725C96.4467 372.203 96.3409 372.836 96.3409 373.624L96.3409 373.902ZM107 366.227L93.6603 362.027L93.6603 357.848L107 353.707L107 357.511L104.359 358.268L104.359 362.467L107 363.209L107 366.227ZM101.561 361.627L101.561 359.029L97.0783 360.328L101.561 361.627ZM107 352.506L93.6603 352.506L93.6603 347.906C93.6603 346.259 94.0607 344.825 94.8615 343.604C95.9943 341.925 97.8139 341.085 100.32 341.085C101.61 341.085 102.734 341.316 103.694 341.778C104.655 342.241 105.416 342.916 105.98 343.805C106.608 344.833 106.942 345.893 106.981 346.983C106.994 347.159 107 347.473 107 347.926L107 352.506ZM96.341 348.844L104.378 348.844C104.372 347.874 104.235 347.104 103.968 346.534C103.698 345.965 103.263 345.554 102.664 345.304C102.065 345.053 101.25 344.928 100.218 344.928C98.3559 344.928 97.1694 345.507 96.6583 346.666C96.4467 347.145 96.341 347.778 96.341 348.565L96.341 348.844ZM107 339.225L93.6603 339.225L93.6603 329.625L96.4581 329.625L96.4581 335.563L98.841 335.563L98.841 331.783L101.639 331.783L101.639 335.563L104.202 335.563L104.202 329.347L107 329.347L107 339.225Z" fill="white"/>
<path d="M155.72 151.416L153.943 149.155C154.548 148.794 154.986 148.369 155.256 147.881C155.526 147.389 155.661 146.774 155.661 146.035C155.661 145.407 155.551 144.907 155.329 144.536C155.105 144.162 154.808 143.975 154.441 143.975C153.962 143.975 153.597 144.378 153.347 145.186C153.093 145.993 152.844 146.833 152.6 147.705C152.352 148.574 151.939 149.32 151.359 149.941C150.777 150.563 149.896 150.874 148.718 150.874C147.894 150.874 147.157 150.654 146.506 150.215C145.852 149.775 145.344 149.163 144.983 148.379C144.621 147.591 144.441 146.702 144.441 145.713C144.441 143.685 145.134 142.106 146.521 140.977L148.259 143.115C147.797 143.509 147.468 143.896 147.273 144.277C147.077 144.658 146.98 145.111 146.98 145.635C146.98 146.165 147.085 146.602 147.297 146.943C147.509 147.285 147.776 147.456 148.098 147.456C148.563 147.456 148.91 147.061 149.138 146.27C149.362 145.479 149.594 144.629 149.831 143.721C150.069 142.809 150.484 142.038 151.076 141.406C151.665 140.771 152.567 140.454 153.781 140.454C154.673 140.454 155.456 140.674 156.13 141.113C156.804 141.549 157.325 142.17 157.693 142.974C158.057 143.778 158.239 144.705 158.239 145.757C158.239 148.491 157.4 150.378 155.72 151.416ZM158 140.469L144.66 136.27L144.66 132.09L158 127.949L158 131.753L155.359 132.51L155.359 136.709L158 137.451L158 140.469ZM152.561 135.869L152.561 133.271L148.078 134.57L152.561 135.869ZM144.66 126.807L144.66 123.149L152.483 123.149C153.078 123.149 153.519 123.127 153.806 123.081C154.092 123.032 154.358 122.941 154.602 122.808C154.872 122.645 155.087 122.404 155.246 122.085C155.402 121.766 155.481 121.421 155.481 121.05C155.481 120.614 155.375 120.216 155.163 119.858C154.952 119.5 154.677 119.256 154.338 119.126C153.967 118.979 153.348 118.906 152.483 118.906L144.66 118.906L144.66 116.025L153.078 116.025C153.902 116.025 154.559 116.095 155.051 116.235C155.539 116.375 156.01 116.626 156.462 116.987C156.836 117.293 157.157 117.673 157.424 118.125C157.691 118.574 157.893 119.082 158.029 119.648C158.169 120.212 158.239 120.819 158.239 121.47C158.239 122.01 158.197 122.515 158.112 122.983C158.028 123.452 157.901 123.883 157.732 124.277C157.559 124.671 157.349 125.02 157.102 125.322C156.854 125.625 156.574 125.874 156.262 126.069C155.832 126.349 155.386 126.543 154.924 126.65C154.458 126.755 153.843 126.807 153.078 126.807L144.66 126.807ZM158 113.564L144.66 113.564L144.66 108.965C144.66 107.318 145.061 105.884 145.861 104.663C146.994 102.983 148.814 102.144 151.32 102.144C152.61 102.144 153.734 102.375 154.694 102.837C155.655 103.299 156.416 103.975 156.98 104.863C157.608 105.892 157.942 106.951 157.981 108.042C157.994 108.218 158 108.532 158 108.984L158 113.564ZM147.341 109.902L155.378 109.902C155.372 108.932 155.235 108.162 154.968 107.593C154.698 107.023 154.263 106.613 153.664 106.362C153.065 106.112 152.25 105.986 151.218 105.986C149.356 105.986 148.169 106.566 147.658 107.725C147.447 108.203 147.341 108.836 147.341 109.624L147.341 109.902ZM158 102.227L144.66 98.0273L144.66 93.8477L158 89.707L158 93.5107L155.359 94.2676L155.359 98.4668L158 99.209L158 102.227ZM152.561 97.627L152.561 95.0293L148.078 96.3281L152.561 97.627ZM158 88.5059L144.66 88.5059L144.66 83.9063C144.66 82.2591 145.061 80.8252 145.861 79.6045C146.994 77.9248 148.814 77.085 151.32 77.085C152.61 77.085 153.734 77.3161 154.694 77.7783C155.655 78.2406 156.416 78.916 156.98 79.8047C157.608 80.8333 157.942 81.8929 157.981 82.9834C157.994 83.1592 158 83.4733 158 83.9258L158 88.5059ZM147.341 84.8438L155.378 84.8438C155.372 83.8737 155.235 83.1038 154.968 82.5342C154.698 81.9645 154.263 81.5544 153.664 81.3037C153.065 81.0531 152.25 80.9277 151.218 80.9277C149.356 80.9277 148.169 81.5072 147.658 82.666C147.447 83.1445 147.341 83.7777 147.341 84.5654L147.341 84.8438ZM158 75.2246L144.66 75.2246L144.66 65.625L147.458 65.625L147.458 71.5625L149.841 71.5625L149.841 67.7832L152.639 67.7832L152.639 71.5625L155.202 71.5625L155.202 65.3467L158 65.3467L158 75.2246Z" fill="white"/>
<path d="M127 348.981L114.994 348.981L114.994 345.686L124.482 345.686L124.482 340.557L127 340.557L127 348.981ZM127 339.586L114.994 335.807L114.994 332.045L127 328.318L127 331.742L124.623 332.423L124.623 336.202L127 336.87L127 339.586ZM122.105 335.446L122.105 333.108L118.07 334.277L122.105 335.446ZM122.715 320L123.274 317.569C123.898 317.736 124.453 317.972 124.939 318.277C125.422 318.579 125.834 318.942 126.174 319.367C126.514 319.792 126.773 320.271 126.952 320.804C127.128 321.337 127.215 321.91 127.215 322.522C127.215 323.266 127.035 324.045 126.675 324.86C126.315 325.674 125.686 326.373 124.79 326.956C123.89 327.539 122.701 327.831 121.221 327.831C120.357 327.831 119.538 327.718 118.765 327.492C117.988 327.267 117.301 326.927 116.704 326.473C116.106 326.016 115.639 325.444 115.302 324.759C114.965 324.07 114.797 323.276 114.797 322.377C114.797 321.454 114.999 320.626 115.403 319.894C115.807 319.159 116.335 318.587 116.985 318.18C117.632 317.773 118.3 317.569 118.989 317.569L119.151 320.65C117.845 320.805 117.192 321.375 117.192 322.359C117.192 323.051 117.517 323.561 118.167 323.889C118.815 324.214 119.827 324.376 121.204 324.376C122.024 324.376 122.693 324.302 123.212 324.152C123.728 324.003 124.11 323.771 124.359 323.458C124.608 323.145 124.733 322.742 124.733 322.25C124.733 321.751 124.614 321.347 124.377 321.037C124.139 320.723 123.893 320.503 123.638 320.377C123.383 320.249 123.076 320.123 122.715 320ZM114.994 316.04L114.994 312.749L122.034 312.749C122.57 312.749 122.967 312.728 123.225 312.687C123.483 312.643 123.722 312.561 123.942 312.441C124.185 312.294 124.378 312.078 124.522 311.791C124.662 311.503 124.733 311.193 124.733 310.859C124.733 310.466 124.637 310.109 124.447 309.787C124.256 309.464 124.009 309.245 123.704 309.127C123.37 308.996 122.814 308.93 122.034 308.93L114.994 308.93L114.994 306.337L122.57 306.337C123.312 306.337 123.903 306.4 124.346 306.526C124.785 306.652 125.209 306.877 125.616 307.203C125.953 307.478 126.241 307.819 126.482 308.227C126.722 308.631 126.903 309.088 127.026 309.598C127.152 310.104 127.215 310.651 127.215 311.237C127.215 311.723 127.177 312.177 127.101 312.599C127.025 313.021 126.911 313.409 126.758 313.764C126.603 314.118 126.414 314.432 126.192 314.704C125.969 314.977 125.717 315.201 125.436 315.376C125.049 315.628 124.648 315.803 124.232 315.899C123.813 315.993 123.259 316.04 122.57 316.04L114.994 316.04ZM127 304.122L114.994 304.122L114.994 301.116L121.098 296.867L114.994 296.867L114.994 294.274L127 294.274L127 296.867L120.197 301.547L127 301.547L127 304.122ZM127 293.215L114.994 289.436L114.994 285.674L127 281.947L127 285.371L124.623 286.052L124.623 289.831L127 290.499L127 293.215ZM122.105 289.075L122.105 286.737L118.07 287.906L122.105 289.075Z" fill="white"/>
<path d="M133.335 264.978L134.203 261.197C135.174 261.457 136.038 261.824 136.794 262.298C137.546 262.767 138.186 263.332 138.715 263.993C139.244 264.654 139.647 265.399 139.925 266.229C140.198 267.058 140.335 267.949 140.335 268.901C140.335 270.059 140.055 271.271 139.494 272.538C138.934 273.805 137.956 274.892 136.562 275.799C135.163 276.706 133.312 277.159 131.011 277.159C129.666 277.159 128.393 276.984 127.19 276.633C125.982 276.282 124.913 275.753 123.984 275.047C123.054 274.336 122.327 273.447 121.803 272.381C121.279 271.31 121.017 270.075 121.017 268.676C121.017 267.24 121.331 265.953 121.96 264.813C122.589 263.67 123.409 262.781 124.421 262.147C125.428 261.514 126.467 261.197 127.538 261.197L127.791 265.989C125.759 266.231 124.742 267.117 124.742 268.648C124.742 269.724 125.248 270.517 126.26 271.027C127.267 271.533 128.842 271.786 130.984 271.786C132.26 271.786 133.301 271.67 134.108 271.438C134.91 271.205 135.504 270.845 135.892 270.357C136.279 269.87 136.473 269.243 136.473 268.478C136.473 267.703 136.288 267.074 135.919 266.591C135.55 266.103 135.167 265.761 134.771 265.565C134.374 265.365 133.896 265.169 133.335 264.978ZM140 258.736L121.324 258.736L121.324 245.297L125.241 245.297L125.241 253.609L128.577 253.609L128.577 248.318L132.494 248.318L132.494 253.609L136.083 253.609L136.083 244.907L140 244.907L140 258.736ZM140 242.631L121.324 242.631L121.324 237.504L136.083 237.504L136.083 229.526L140 229.526L140 242.631ZM140 227.4L121.324 227.4L121.324 213.961L125.241 213.961L125.241 222.273L128.577 222.273L128.577 216.982L132.494 216.982L132.494 222.273L136.083 222.273L136.083 213.571L140 213.571L140 227.4ZM136.808 212.416L134.319 209.251C135.167 208.745 135.78 208.15 136.158 207.467C136.537 206.779 136.726 205.917 136.726 204.883C136.726 204.003 136.571 203.304 136.261 202.784C135.946 202.26 135.532 201.998 135.017 201.998C134.347 201.998 133.836 202.563 133.485 203.693C133.13 204.824 132.781 205.999 132.44 207.221C132.093 208.438 131.514 209.481 130.703 210.352C129.888 211.222 128.655 211.657 127.005 211.657C125.852 211.657 124.82 211.35 123.908 210.734C122.992 210.119 122.281 209.262 121.776 208.164C121.27 207.061 121.017 205.817 121.017 204.432C121.017 201.592 121.987 199.382 123.929 197.801L126.362 200.795C125.715 201.346 125.255 201.889 124.982 202.422C124.708 202.955 124.571 203.589 124.571 204.322C124.571 205.065 124.72 205.676 125.016 206.154C125.312 206.633 125.686 206.872 126.137 206.872C126.789 206.872 127.274 206.318 127.593 205.211C127.907 204.104 128.231 202.914 128.564 201.643C128.896 200.367 129.477 199.286 130.307 198.402C131.132 197.514 132.394 197.069 134.094 197.069C135.343 197.069 136.439 197.377 137.382 197.992C138.325 198.603 139.054 199.471 139.569 200.597C140.08 201.722 140.335 203.021 140.335 204.493C140.335 208.321 139.159 210.962 136.808 212.416ZM140 191.204L125.241 191.204L125.241 196.27L121.324 196.27L121.324 181.012L125.241 181.012L125.241 186.077L140 186.077L140 191.204ZM140 178.127L121.324 178.127L121.324 173L140 173L140 178.127ZM140 171.305L121.324 165.426L121.324 159.574L140 153.777L140 159.103L136.302 160.162L136.302 166.041L140 167.08L140 171.305ZM132.385 164.865L132.385 161.229L126.11 163.047L132.385 164.865Z" fill="white"/>
<path d="M128 147.866L115.994 147.866L115.994 139.227L118.512 139.227L118.512 144.57L120.657 144.57L120.657 141.169L123.175 141.169L123.175 144.57L125.482 144.57L125.482 138.976L128 138.976L128 147.866ZM115.994 137.583L115.994 134.292L123.034 134.292C123.57 134.292 123.967 134.271 124.225 134.23C124.483 134.186 124.722 134.104 124.942 133.984C125.185 133.837 125.378 133.621 125.522 133.333C125.662 133.046 125.733 132.736 125.733 132.402C125.733 132.009 125.637 131.652 125.447 131.33C125.256 131.007 125.009 130.788 124.704 130.67C124.37 130.539 123.814 130.473 123.034 130.473L115.994 130.473L115.994 127.88L123.57 127.88C124.312 127.88 124.903 127.943 125.346 128.069C125.785 128.195 126.209 128.42 126.616 128.746C126.953 129.021 127.241 129.362 127.482 129.77C127.722 130.174 127.903 130.631 128.026 131.141C128.152 131.647 128.215 132.194 128.215 132.78C128.215 133.266 128.177 133.72 128.101 134.142C128.025 134.564 127.911 134.952 127.758 135.307C127.603 135.661 127.414 135.975 127.192 136.247C126.969 136.52 126.717 136.744 126.436 136.919C126.049 137.171 125.648 137.346 125.232 137.442C124.813 137.536 124.259 137.583 123.57 137.583L115.994 137.583ZM128 125.665L115.994 125.665L115.994 122.659L122.098 118.41L115.994 118.41L115.994 115.817L128 115.817L128 118.41L121.197 123.09L128 123.09L128 125.665ZM122.006 114.147C120.743 114.147 119.642 113.923 118.701 113.475C117.761 113.026 117.042 112.392 116.544 111.572C116.046 110.751 115.797 109.81 115.797 108.746C115.797 107.873 115.955 107.1 116.271 106.426C116.585 105.749 117.021 105.184 117.581 104.729C118.14 104.275 118.779 103.936 119.497 103.71C120.214 103.481 120.979 103.367 121.791 103.367C122.667 103.367 123.493 103.474 124.269 103.688C125.046 103.899 125.728 104.223 126.317 104.659C126.906 105.093 127.37 105.655 127.71 106.347C128.047 107.035 128.215 107.835 128.215 108.746C128.215 109.502 128.085 110.208 127.824 110.864C127.564 111.518 127.174 112.092 126.655 112.587C126.134 113.079 125.484 113.463 124.704 113.738C123.922 114.011 123.023 114.147 122.006 114.147ZM122.006 110.693C124.549 110.693 125.82 110.044 125.82 108.746C125.82 108.02 125.467 107.517 124.761 107.239C124.055 106.96 123.071 106.821 121.808 106.821C119.397 106.821 118.192 107.463 118.192 108.746C118.192 109.224 118.347 109.606 118.657 109.893C118.968 110.18 119.406 110.385 119.971 110.508C120.534 110.631 121.212 110.693 122.006 110.693ZM128 101.688L115.994 101.688L115.994 98.3926L128 98.3926L128 101.688ZM128 97.3027L115.994 93.5234L115.994 89.7617L128 86.0352L128 89.4585L125.623 90.1396L125.623 93.9189L128 94.5869L128 97.3027ZM123.105 93.1631L123.105 90.8252L119.07 91.9941L123.105 93.1631Z" fill="white"/>
<path d="M140 83.9814L127.994 83.9814L127.994 80.6855L137.482 80.6855L137.482 75.5571L140 75.5571L140 83.9814ZM140 74.5859L127.994 70.8066L127.994 67.0449L140 63.3184L140 66.7417L137.623 67.4229L137.623 71.2021L140 71.8701L140 74.5859ZM135.105 70.4463L135.105 68.1084L131.07 69.2773L135.105 70.4463ZM135.715 54.9995L136.274 52.5693C136.898 52.7363 137.453 52.9722 137.939 53.2769C138.422 53.5786 138.834 53.9419 139.174 54.3667C139.514 54.7915 139.773 55.2705 139.952 55.8037C140.128 56.3369 140.215 56.9097 140.215 57.522C140.215 58.2661 140.035 59.0454 139.675 59.8599C139.315 60.6743 138.686 61.373 137.79 61.9561C136.89 62.5391 135.701 62.8306 134.221 62.8306C133.357 62.8306 132.538 62.7178 131.765 62.4922C130.988 62.2666 130.301 61.9268 129.704 61.4727C129.106 61.0156 128.639 60.4443 128.302 59.7588C127.965 59.0703 127.797 58.2764 127.797 57.377C127.797 56.4541 127.999 55.6265 128.403 54.894C128.807 54.1587 129.335 53.5874 129.985 53.1802C130.632 52.7729 131.3 52.5693 131.989 52.5693L132.151 55.6499C130.845 55.8052 130.192 56.375 130.192 57.3594C130.192 58.0508 130.517 58.5605 131.167 58.8887C131.815 59.2139 132.827 59.3765 134.204 59.3765C135.024 59.3765 135.693 59.3018 136.212 59.1523C136.728 59.0029 137.11 58.7715 137.359 58.458C137.608 58.1445 137.733 57.7417 137.733 57.2495C137.733 56.7515 137.614 56.3472 137.377 56.0366C137.139 55.7231 136.893 55.5034 136.638 55.3774C136.383 55.2485 136.076 55.1226 135.715 54.9995ZM127.994 51.04L127.994 47.7485L135.034 47.7485C135.57 47.7485 135.967 47.728 136.225 47.687C136.483 47.6431 136.722 47.561 136.942 47.4409C137.185 47.2944 137.378 47.0776 137.522 46.7905C137.662 46.5034 137.733 46.1929 137.733 45.8589C137.733 45.4663 137.637 45.1089 137.447 44.7866C137.256 44.4644 137.009 44.2446 136.704 44.1274C136.37 43.9956 135.814 43.9297 135.034 43.9297L127.994 43.9297L127.994 41.3369L135.57 41.3369C136.312 41.3369 136.903 41.3999 137.346 41.5259C137.785 41.6519 138.209 41.8774 138.616 42.2026C138.953 42.478 139.241 42.8193 139.482 43.2266C139.722 43.6309 139.903 44.0879 140.026 44.5977C140.152 45.1045 140.215 45.6509 140.215 46.2368C140.215 46.7231 140.177 47.1772 140.101 47.5991C140.025 48.021 139.911 48.4092 139.758 48.7637C139.603 49.1182 139.414 49.4316 139.192 49.7041C138.969 49.9766 138.717 50.2007 138.436 50.3765C138.049 50.6284 137.648 50.8027 137.232 50.8994C136.813 50.9932 136.259 51.04 135.57 51.04L127.994 51.04ZM140 39.1221L127.994 39.1221L127.994 36.1162L134.098 31.8667L127.994 31.8667L127.994 29.2739L140 29.2739L140 31.8667L133.197 36.5469L140 36.5469L140 39.1221ZM140 28.2148L127.994 24.4355L127.994 20.6738L140 16.9473L140 20.3706L137.623 21.0518L137.623 24.8311L140 25.499L140 28.2148ZM135.105 24.0752L135.105 21.7373L131.07 22.9063L135.105 24.0752Z" fill="white"/>
<path d="M162 236.735L149.994 236.735L149.994 233.439L154.622 233.439L154.622 230.095L149.994 230.095L149.994 226.782L162 226.782L162 230.095L157.14 230.095L157.14 233.439L162 233.439L162 236.735ZM162 225.723L149.994 221.943L149.994 218.182L162 214.455L162 217.878L159.623 218.56L159.623 222.339L162 223.007L162 225.723ZM157.105 221.583L157.105 219.245L153.07 220.414L157.105 221.583ZM162 213.356L149.994 213.356L149.994 210.061L159.482 210.061L159.482 204.932L162 204.932L162 213.356ZM157.715 196.785L158.274 194.354C158.898 194.521 159.453 194.757 159.939 195.062C160.422 195.364 160.834 195.727 161.174 196.152C161.514 196.577 161.773 197.056 161.952 197.589C162.128 198.122 162.215 198.695 162.215 199.307C162.215 200.051 162.035 200.831 161.675 201.645C161.315 202.459 160.686 203.158 159.79 203.741C158.89 204.324 157.701 204.616 156.221 204.616C155.357 204.616 154.538 204.503 153.765 204.277C152.988 204.052 152.301 203.712 151.704 203.258C151.106 202.801 150.639 202.229 150.302 201.544C149.965 200.855 149.797 200.062 149.797 199.162C149.797 198.239 149.999 197.412 150.403 196.679C150.807 195.944 151.335 195.373 151.985 194.965C152.632 194.558 153.3 194.354 153.989 194.354L154.151 197.435C152.845 197.59 152.192 198.16 152.192 199.145C152.192 199.836 152.517 200.346 153.167 200.674C153.815 200.999 154.827 201.162 156.204 201.162C157.024 201.162 157.693 201.087 158.212 200.938C158.728 200.788 159.11 200.557 159.359 200.243C159.608 199.93 159.733 199.527 159.733 199.035C159.733 198.537 159.614 198.132 159.377 197.822C159.139 197.508 158.893 197.289 158.638 197.163C158.383 197.034 158.076 196.908 157.715 196.785ZM162 190.988L156.907 190.988L149.994 194.983L149.994 191.256L154.081 189.024L149.994 186.756L149.994 183.821L156.617 187.692L162 187.692L162 190.988ZM156.006 184.436C154.743 184.436 153.642 184.212 152.701 183.764C151.761 183.315 151.042 182.681 150.544 181.861C150.046 181.041 149.797 180.099 149.797 179.035C149.797 178.162 149.955 177.389 150.271 176.715C150.585 176.038 151.021 175.473 151.581 175.019C152.14 174.564 152.779 174.225 153.497 173.999C154.214 173.771 154.979 173.656 155.791 173.656C156.667 173.656 157.493 173.763 158.269 173.977C159.046 174.188 159.728 174.512 160.317 174.948C160.906 175.382 161.37 175.944 161.71 176.636C162.047 177.324 162.215 178.124 162.215 179.035C162.215 179.791 162.085 180.497 161.824 181.153C161.564 181.807 161.174 182.381 160.655 182.876C160.134 183.368 159.484 183.752 158.704 184.027C157.922 184.3 157.023 184.436 156.006 184.436ZM156.006 180.982C158.549 180.982 159.82 180.333 159.82 179.035C159.82 178.309 159.467 177.806 158.761 177.528C158.055 177.25 157.071 177.11 155.808 177.11C153.397 177.11 152.192 177.752 152.192 179.035C152.192 179.513 152.347 179.895 152.657 180.182C152.968 180.469 153.406 180.674 153.971 180.797C154.534 180.92 155.212 180.982 156.006 180.982ZM162 171.978L149.994 171.978L149.994 168.972L156.098 164.722L149.994 164.722L149.994 162.129L162 162.129L162 164.722L155.197 169.402L162 169.402L162 171.978Z" fill="white"/>
</svg>
