<svg width="213" height="452" viewBox="0 0 213 452" fill="none" xmlns="http://www.w3.org/2000/svg">
<path d="M177 8.70605L189.006 8.70605L189.006 17.3457L186.488 17.3457L186.488 12.002L184.343 12.002L184.343 15.4033L181.825 15.4033L181.825 12.002L179.518 12.002L179.518 17.5962L177 17.5962L177 8.70605ZM177 19.042L189.006 19.042L189.006 24.5483C189.006 25.5298 188.862 26.3647 188.575 27.0532C188.288 27.7417 187.868 28.2646 187.314 28.6221C186.76 28.9795 186.094 29.1582 185.315 29.1582C184.644 29.1582 184.031 29.0088 183.478 28.71C182.927 28.4141 182.502 28.0054 182.203 27.4839C181.969 27.062 181.802 26.6079 181.702 26.1216C181.603 25.6353 181.553 25.0273 181.553 24.2978L181.553 22.3379L177 22.3379L177 19.042ZM186.721 22.3379L183.93 22.3379L183.93 23.9551C183.93 24.5762 184.037 25.0229 184.251 25.2954C184.465 25.5679 184.814 25.7041 185.297 25.7041C185.78 25.7041 186.138 25.5679 186.369 25.2954C186.604 25.0229 186.721 24.5762 186.721 23.9551L186.721 22.3379ZM177 30.7842L189.006 30.7842L189.006 34.0801L184.379 34.0801L184.379 37.4243L189.006 37.4243L189.006 40.7378L177 40.7378L177 37.4243L181.86 37.4243L181.86 34.0801L177 34.0801L177 30.7842ZM177 43.001L189.006 43.001L189.006 51.6406L186.488 51.6406L186.488 46.2969L184.343 46.2969L184.343 49.6982L181.825 49.6982L181.825 46.2969L179.518 46.2969L179.518 51.8911L177 51.8911L177 43.001ZM177 53.3545L189.006 53.3545L189.006 58.105L183.047 59.9067L189.006 61.814L189.006 66.5293L177 66.5293L177 63.2378L185.64 63.2378L177 60.5352L177 58.5752L185.64 55.9297L177 55.9297L177 53.3545ZM177 68.8057L189.006 68.8057L189.006 77.4453L186.488 77.4453L186.488 72.1016L184.343 72.1016L184.343 75.5029L181.825 75.5029L181.825 72.1016L179.518 72.1016L179.518 77.6958L177 77.6958L177 68.8057ZM177 79.1416L189.006 79.1416L189.006 84.3975C189.006 85.5078 188.892 86.4263 188.663 87.1528C188.467 87.7915 188.082 88.3101 187.507 88.7085C186.936 89.1099 186.296 89.3105 185.587 89.3105C184.726 89.3105 184.011 89.0352 183.442 88.4844C183.12 88.1797 182.821 87.7168 182.546 87.0957L177 89.2754L177 85.584L181.966 83.9316L181.966 82.4199L177 82.4199L177 79.1416ZM186.721 82.4199L184.216 82.4199L184.216 84.3623C184.216 84.8311 184.327 85.1973 184.55 85.4609C184.773 85.7246 185.082 85.8564 185.477 85.8564C185.873 85.8564 186.179 85.7261 186.396 85.4653C186.612 85.2075 186.721 84.8398 186.721 84.3623L186.721 82.4199ZM177 89.7852L189.006 93.5645L189.006 97.3262L177 101.053L177 97.6294L179.378 96.9482L179.378 93.1689L177 92.501L177 89.7852ZM181.896 93.9248L181.896 96.2627L185.93 95.0937L181.896 93.9248Z" fill="white"/>
<path d="M191.984 107.441C195.352 107.441 198.289 108.039 200.797 109.234C203.305 110.43 205.223 112.121 206.551 114.309C207.879 116.496 208.543 119.008 208.543 121.844C208.543 124.172 208.121 126.234 207.277 128.031C206.442 129.836 205.277 131.344 203.785 132.555C202.293 133.766 200.59 134.672 198.676 135.273C196.762 135.883 194.723 136.187 192.559 136.187C190.223 136.187 188.02 135.902 185.949 135.332C183.879 134.77 182.059 133.906 180.488 132.742C178.918 131.586 177.68 130.086 176.774 128.242C175.875 126.406 175.426 124.273 175.426 121.844C175.426 119.828 175.774 117.945 176.469 116.195C177.164 114.453 178.203 112.922 179.586 111.602C180.977 110.289 182.711 109.266 184.789 108.531C186.875 107.805 189.274 107.441 191.984 107.441ZM191.984 116.652C185.203 116.652 181.813 118.383 181.813 121.844C181.813 123.781 182.754 125.121 184.637 125.863C186.52 126.605 189.145 126.977 192.512 126.977C198.942 126.977 202.156 125.266 202.156 121.844C202.156 120.57 201.742 119.551 200.914 118.785C200.086 118.02 198.918 117.473 197.41 117.145C195.91 116.816 194.102 116.652 191.984 116.652ZM176 140.664L208.016 140.664L208.016 156.602C208.016 159.227 207.567 161.371 206.668 163.035C205.957 164.402 205.004 165.461 203.809 166.211C202.621 166.969 201.32 167.348 199.906 167.348C196.492 167.348 194.027 165.27 192.512 161.113C192.035 162.59 191.539 163.758 191.024 164.617C190.586 165.352 190.047 165.977 189.406 166.492C188.774 167.008 188.051 167.398 187.238 167.664C186.426 167.937 185.574 168.074 184.684 168.074C182.606 168.074 180.848 167.52 179.41 166.41C177.981 165.301 177.035 163.773 176.574 161.828C176.192 160.305 176 158.227 176 155.594L176 140.664ZM182.094 149.453L182.094 152.91C182.094 154.973 182.238 156.363 182.527 157.082C182.988 158.262 183.965 158.852 185.457 158.852C186.91 158.852 187.918 158.262 188.481 157.082C188.926 156.238 189.149 154.926 189.149 153.145L189.149 149.453L182.094 149.453ZM195.395 149.453L195.395 154.105C195.395 155.66 195.656 156.777 196.18 157.457C196.703 158.137 197.563 158.477 198.758 158.477C200.867 158.477 201.922 157.02 201.922 154.105L201.922 149.453L195.395 149.453ZM176 172.586L208.016 172.586L208.016 181.375L182.715 181.375L182.715 195.051L176 195.051L176 172.586ZM176 198.695L208.016 198.695L208.016 207.484L176 207.484L176 198.695ZM176 220.469L208.016 210.285L208.016 219.074L186.559 225.309L208.016 231.602L208.016 239.09L176 229.059L176 220.469ZM176 241.773L208.016 241.773L208.016 250.562L176 250.562L176 241.773ZM191.984 255.098C195.352 255.098 198.289 255.695 200.797 256.891C203.305 258.086 205.223 259.777 206.551 261.965C207.879 264.152 208.543 266.664 208.543 269.5C208.543 271.828 208.121 273.891 207.277 275.687C206.441 277.492 205.277 279 203.785 280.211C202.293 281.422 200.59 282.328 198.676 282.93C196.762 283.539 194.723 283.844 192.559 283.844C190.223 283.844 188.02 283.559 185.949 282.988C183.879 282.426 182.059 281.562 180.488 280.398C178.918 279.242 177.68 277.742 176.774 275.898C175.875 274.062 175.426 271.93 175.426 269.5C175.426 267.484 175.774 265.602 176.469 263.852C177.164 262.109 178.203 260.578 179.586 259.258C180.977 257.945 182.711 256.922 184.789 256.187C186.875 255.461 189.274 255.098 191.984 255.098ZM191.984 264.309C185.203 264.309 181.813 266.039 181.813 269.5C181.813 271.437 182.754 272.777 184.637 273.52C186.52 274.262 189.145 274.633 192.512 274.633C198.941 274.633 202.156 272.922 202.156 269.5C202.156 268.227 201.742 267.207 200.914 266.441C200.086 265.676 198.918 265.129 197.41 264.801C195.91 264.473 194.102 264.309 191.984 264.309ZM176 288.32L208.016 288.32L208.016 296.336L191.738 307.668L208.016 307.668L208.016 314.582L176 314.582L176 307.668L194.141 295.187L176 295.187L176 288.32Z" fill="white"/>
<path d="M130 2.01855L142.006 2.01855L142.006 5.31445L132.518 5.31445L132.518 10.4429L130 10.4429L130 2.01855ZM130 11.4141L142.006 15.1934L142.006 18.9551L130 22.6816L130 19.2583L132.378 18.5771L132.378 14.7978L130 14.1299L130 11.4141ZM134.896 15.5537L134.896 17.8916L138.93 16.7227L134.896 15.5537ZM134.285 31.0005L133.727 33.4307C133.103 33.2637 132.547 33.0278 132.061 32.7231C131.578 32.4214 131.166 32.0581 130.826 31.6333C130.486 31.2085 130.227 30.7295 130.048 30.1963C129.873 29.6631 129.785 29.0903 129.785 28.478C129.785 27.7339 129.965 26.9546 130.325 26.1401C130.686 25.3257 131.314 24.627 132.211 24.0439C133.11 23.4609 134.299 23.1694 135.779 23.1694C136.643 23.1694 137.462 23.2822 138.235 23.5078C139.012 23.7334 139.699 24.0732 140.297 24.5273C140.894 24.9844 141.361 25.5557 141.698 26.2412C142.035 26.9297 142.204 27.7236 142.204 28.623C142.204 29.5459 142.002 30.3735 141.597 31.106C141.193 31.8413 140.666 32.4126 140.015 32.8198C139.368 33.227 138.7 33.4307 138.011 33.4307L137.849 30.3501C139.155 30.1948 139.809 29.625 139.809 28.6406C139.809 27.9492 139.484 27.4395 138.833 27.1113C138.186 26.7861 137.173 26.6235 135.797 26.6235C134.976 26.6235 134.307 26.6982 133.788 26.8477C133.273 26.9971 132.89 27.2285 132.641 27.542C132.392 27.8555 132.268 28.2583 132.268 28.7505C132.268 29.2485 132.386 29.6528 132.624 29.9634C132.861 30.2769 133.107 30.4966 133.362 30.6226C133.617 30.7515 133.924 30.8774 134.285 31.0005ZM142.006 34.96L142.006 38.2515L134.966 38.2515C134.43 38.2515 134.033 38.272 133.775 38.313C133.517 38.3569 133.278 38.439 133.059 38.5591C132.816 38.7056 132.622 38.9224 132.479 39.2095C132.338 39.4966 132.268 39.8071 132.268 40.1411C132.268 40.5337 132.363 40.8911 132.553 41.2134C132.744 41.5356 132.991 41.7554 133.296 41.8726C133.63 42.0044 134.187 42.0703 134.966 42.0703L142.006 42.0703L142.006 44.6631L134.43 44.6631C133.689 44.6631 133.097 44.6001 132.654 44.4741C132.215 44.3481 131.792 44.1226 131.384 43.7974C131.047 43.522 130.759 43.1807 130.519 42.7734C130.278 42.3691 130.097 41.9121 129.974 41.4023C129.848 40.8955 129.785 40.3491 129.785 39.7632C129.785 39.2769 129.823 38.8228 129.899 38.4009C129.975 37.979 130.089 37.5908 130.242 37.2363C130.397 36.8818 130.586 36.5684 130.809 36.2959C131.031 36.0234 131.283 35.7993 131.565 35.6235C131.951 35.3716 132.353 35.1973 132.769 35.1006C133.188 35.0068 133.741 34.96 134.43 34.96L142.006 34.96ZM130 46.8779L142.006 46.8779L142.006 49.8838L135.902 54.1333L142.006 54.1333L142.006 56.7261L130 56.7261L130 54.1333L136.803 49.4531L130 49.4531L130 46.8779ZM130 57.7852L142.006 61.5645L142.006 65.3262L130 69.0527L130 65.6294L132.378 64.9482L132.378 61.1689L130 60.501L130 57.7852ZM134.896 61.9248L134.896 64.2627L138.93 63.0937L134.896 61.9248Z" fill="white"/>
<path d="M130 78.8906L162.016 68.707L162.016 77.4961L140.559 83.7305L162.016 90.0234L162.016 97.5117L130 87.4805L130 78.8906ZM130 100.195L162.016 100.195L162.016 123.234L155.301 123.234L155.301 108.984L149.582 108.984L149.582 118.055L142.867 118.055L142.867 108.984L136.715 108.984L136.715 123.902L130 123.902L130 100.195ZM130 127.805L162.016 127.805L162.016 136.594L136.715 136.594L136.715 150.27L130 150.27L130 127.805ZM130 153.961L162.016 153.961L162.016 162.75L136.715 162.75L136.715 176.426L130 176.426L130 153.961ZM130 180.07L162.016 180.07L162.016 188.859L130 188.859L130 180.07ZM141.426 214.277L139.938 220.758C138.274 220.312 136.793 219.684 135.496 218.871C134.207 218.066 133.109 217.098 132.203 215.965C131.297 214.832 130.606 213.555 130.129 212.133C129.66 210.711 129.426 209.184 129.426 207.551C129.426 205.566 129.906 203.488 130.867 201.316C131.828 199.145 133.504 197.281 135.895 195.727C138.293 194.172 141.465 193.395 145.41 193.395C147.715 193.395 149.899 193.695 151.961 194.297C154.031 194.898 155.863 195.805 157.457 197.016C159.051 198.234 160.297 199.758 161.195 201.586C162.094 203.422 162.543 205.539 162.543 207.937C162.543 210.398 162.004 212.605 160.926 214.559C159.848 216.52 158.441 218.043 156.707 219.129C154.981 220.215 153.199 220.758 151.363 220.758L150.93 212.543C154.414 212.129 156.156 210.609 156.156 207.984C156.156 206.141 155.289 204.781 153.555 203.906C151.828 203.039 149.129 202.605 145.457 202.605C143.27 202.605 141.484 202.805 140.102 203.203C138.727 203.602 137.707 204.219 137.043 205.055C136.379 205.891 136.047 206.965 136.047 208.277C136.047 209.605 136.363 210.684 136.996 211.512C137.629 212.348 138.285 212.934 138.965 213.27C139.645 213.613 140.465 213.949 141.426 214.277ZM130 224.977L162.016 224.977L162.016 233.766L149.676 233.766L149.676 242.684L162.016 242.684L162.016 251.52L130 251.52L130 242.684L142.961 242.684L142.961 233.766L130 233.766L130 224.977ZM145.984 255.973C149.352 255.973 152.289 256.57 154.797 257.766C157.305 258.961 159.223 260.652 160.551 262.84C161.879 265.027 162.543 267.539 162.543 270.375C162.543 272.703 162.121 274.766 161.277 276.562C160.441 278.367 159.277 279.875 157.785 281.086C156.293 282.297 154.59 283.203 152.676 283.805C150.762 284.414 148.723 284.719 146.559 284.719C144.223 284.719 142.02 284.434 139.949 283.863C137.879 283.301 136.059 282.437 134.488 281.273C132.918 280.117 131.68 278.617 130.774 276.773C129.875 274.937 129.426 272.805 129.426 270.375C129.426 268.359 129.774 266.477 130.469 264.727C131.164 262.984 132.203 261.453 133.586 260.133C134.977 258.82 136.711 257.797 138.789 257.062C140.875 256.336 143.274 255.973 145.984 255.973ZM145.984 265.184C139.203 265.184 135.813 266.914 135.813 270.375C135.813 272.312 136.754 273.652 138.637 274.395C140.52 275.137 143.145 275.508 146.512 275.508C152.941 275.508 156.156 273.797 156.156 270.375C156.156 269.102 155.742 268.082 154.914 267.316C154.086 266.551 152.918 266.004 151.41 265.676C149.91 265.348 148.102 265.184 145.984 265.184ZM130 289.195L162.016 289.195L162.016 303.211C162.016 306.172 161.711 308.621 161.102 310.559C160.578 312.262 159.551 313.645 158.02 314.707C156.496 315.777 154.789 316.312 152.899 316.312C150.602 316.312 148.695 315.578 147.18 314.109C146.32 313.297 145.524 312.062 144.789 310.406L130 316.219L130 306.375L143.242 301.969L143.242 297.937L130 297.937L130 289.195ZM155.922 297.937L149.242 297.937L149.242 303.117C149.242 304.367 149.539 305.344 150.133 306.047C150.727 306.75 151.551 307.102 152.606 307.102C153.66 307.102 154.477 306.754 155.055 306.059C155.633 305.371 155.922 304.391 155.922 303.117L155.922 297.937Z" fill="white"/>
<path d="M33.0001 50.0234L65.0157 50.0234L65.0157 73.0625L58.3009 73.0625L58.3009 58.8125L52.5822 58.8125L52.5821 67.8828L45.8673 67.8828L45.8673 58.8125L39.715 58.8125L39.715 73.7305L33.0001 73.7305L33.0001 50.0234ZM65.0157 77.4453L65.0157 86.2227L46.2423 86.2227C44.8126 86.2227 43.754 86.2773 43.0665 86.3867C42.379 86.5039 41.7423 86.7227 41.1564 87.043C40.5079 87.4336 39.9923 88.0117 39.6095 88.7773C39.2345 89.543 39.047 90.3711 39.047 91.2617C39.047 92.3086 39.3009 93.2617 39.8087 94.1211C40.3165 94.9805 40.9767 95.5664 41.7892 95.8789C42.6798 96.2305 44.1642 96.4062 46.2423 96.4062L65.0157 96.4062L65.0157 103.32L44.8126 103.32C42.836 103.32 41.2579 103.152 40.0782 102.816C38.9064 102.48 37.7775 101.879 36.6915 101.012C35.7931 100.277 35.0235 99.3672 34.3829 98.2812C33.7423 97.2031 33.2579 95.9844 32.9298 94.625C32.5939 93.2734 32.4259 91.8164 32.4259 90.2539C32.4259 88.957 32.5275 87.7461 32.7306 86.6211C32.9337 85.4961 33.2384 84.4609 33.6446 83.5156C34.0587 82.5703 34.5626 81.7344 35.1564 81.0078C35.7501 80.2812 36.422 79.6836 37.172 79.2148C38.2032 78.543 39.2736 78.0781 40.3829 77.8203C41.5001 77.5703 42.9767 77.4453 44.8126 77.4453L65.0157 77.4453ZM33.0001 109.227L65.0157 109.227L65.0157 117.242L48.7384 128.574L65.0157 128.574L65.0157 135.488L33.0001 135.488L33.0001 128.574L51.1407 116.094L33.0001 116.094L33.0001 109.227ZM48.9845 139.941C52.3517 139.941 55.2892 140.539 57.797 141.734C60.3048 142.93 62.2228 144.621 63.5509 146.809C64.879 148.996 65.5431 151.508 65.5431 154.344C65.5431 156.672 65.1212 158.734 64.2774 160.531C63.4415 162.336 62.2774 163.844 60.7853 165.055C59.2931 166.266 57.5899 167.172 55.6759 167.773C53.7618 168.383 51.7228 168.687 49.5587 168.687C47.2228 168.687 45.0196 168.402 42.9493 167.832C40.879 167.27 39.0587 166.406 37.4884 165.242C35.9181 164.086 34.6798 162.586 33.7735 160.742C32.8751 158.906 32.4259 156.773 32.4259 154.344C32.4259 152.328 32.7735 150.445 33.4688 148.695C34.1642 146.953 35.2032 145.422 36.586 144.102C37.9767 142.789 39.711 141.766 41.7892 141.031C43.8751 140.305 46.2735 139.941 48.9845 139.941ZM48.9845 149.152C42.2032 149.152 38.8126 150.883 38.8126 154.344C38.8126 156.281 39.754 157.621 41.6368 158.363C43.5196 159.105 46.1446 159.477 49.5118 159.477C55.9415 159.477 59.1563 157.766 59.1563 154.344C59.1563 153.07 58.7423 152.051 57.9142 151.285C57.086 150.52 55.9181 149.973 54.4103 149.645C52.9103 149.316 51.1017 149.152 48.9845 149.152ZM33.0001 173.164L65.0157 173.164L65.0157 181.953L33.0001 181.953L33.0001 173.164ZM33.0001 184.859L65.0157 194.937L65.0157 204.969L33.0001 214.906L33.0001 205.777L39.3399 203.961L39.3399 193.883L33.0001 192.102L33.0001 184.859ZM46.0548 195.898L46.0548 202.133L56.8126 199.016L46.0548 195.898Z" fill="white"/>
<path d="M16.4728 215.148L20.7384 220.574C19.2853 221.441 18.2345 222.461 17.5861 223.633C16.9376 224.812 16.6134 226.289 16.6134 228.062C16.6134 229.57 16.879 230.77 17.4103 231.66C17.9493 232.559 18.6603 233.008 19.5431 233.008C20.6915 233.008 21.5665 232.039 22.1681 230.102C22.7775 228.164 23.3751 226.148 23.9611 224.055C24.5548 221.969 25.547 220.18 26.9376 218.687C28.3361 217.195 30.4493 216.449 33.2775 216.449C35.254 216.449 37.0236 216.977 38.5861 218.031C40.1564 219.086 41.3751 220.555 42.2423 222.437C43.1095 224.328 43.5431 226.461 43.5431 228.836C43.5431 233.703 41.879 237.492 38.5509 240.203L34.379 235.07C35.4884 234.125 36.2775 233.195 36.7462 232.281C37.215 231.367 37.4493 230.281 37.4493 229.023C37.4493 227.75 37.1954 226.703 36.6876 225.883C36.1798 225.062 35.5392 224.652 34.7657 224.652C33.6486 224.652 32.8165 225.602 32.2697 227.5C31.7306 229.398 31.1759 231.437 30.6056 233.617C30.0353 235.805 29.0392 237.656 27.6173 239.172C26.2032 240.695 24.0392 241.457 21.1251 241.457C18.9845 241.457 17.1056 240.93 15.4884 239.875C13.8712 238.828 12.6212 237.34 11.7384 235.41C10.8634 233.48 10.4259 231.254 10.4259 228.73C10.4259 222.168 12.4415 217.641 16.4728 215.148ZM11.0001 246.086L43.0157 246.086L43.0157 269.125L36.3009 269.125L36.3009 254.875L30.5821 254.875L30.5821 263.945L23.8673 263.945L23.8673 254.875L17.715 254.875L17.715 269.793L11.0001 269.793L11.0001 246.086ZM11.0001 273.648L43.0157 273.648L43.0157 287.664C43.0157 290.625 42.711 293.074 42.1017 295.012C41.5782 296.715 40.5509 298.098 39.0196 299.16C37.4962 300.23 35.7892 300.766 33.8985 300.766C31.6017 300.766 29.6954 300.031 28.1798 298.562C27.3204 297.75 26.5235 296.516 25.7892 294.859L11.0001 300.672L11.0001 290.828L24.2423 286.422L24.2423 282.391L11.0001 282.391L11.0001 273.648ZM36.922 282.391L30.2423 282.391L30.2423 287.57C30.2423 288.82 30.5392 289.797 31.1329 290.5C31.7267 291.203 32.5509 291.555 33.6056 291.555C34.6603 291.555 35.4767 291.207 36.0548 290.512C36.6329 289.824 36.922 288.844 36.922 287.57L36.922 282.391ZM11.0001 302.031L43.0157 312.109L43.0157 322.141L11.0001 332.078L11.0001 322.949L17.3399 321.133L17.3399 311.055L11.0001 309.273L11.0001 302.031ZM24.0548 313.07L24.0548 319.305L34.8126 316.187L24.0548 313.07ZM11.0001 334.961L43.0157 334.961L43.0157 349.645C43.0157 352.262 42.6329 354.488 41.8673 356.324C41.1017 358.16 39.9806 359.555 38.504 360.508C37.0274 361.461 35.2501 361.937 33.172 361.937C31.3829 361.937 29.7501 361.539 28.2735 360.742C26.8048 359.953 25.672 358.863 24.8751 357.473C24.2501 356.348 23.8048 355.137 23.5392 353.84C23.2735 352.543 23.1407 350.922 23.1407 348.977L23.1407 343.75L11.0001 343.75L11.0001 334.961ZM36.922 343.75L29.4806 343.75L29.4806 348.062C29.4806 349.719 29.7657 350.91 30.336 351.637C30.9063 352.363 31.836 352.727 33.1251 352.727C34.4142 352.727 35.3673 352.363 35.9845 351.637C36.6095 350.91 36.922 349.719 36.922 348.062L36.922 343.75ZM11.0001 366.273L43.0157 366.273L43.0157 375.062L30.6759 375.062L30.6759 383.98L43.0157 383.98L43.0157 392.816L11.0001 392.816L11.0001 383.98L23.961 383.98L23.961 375.062L11.0001 375.062L11.0001 366.273ZM11.0001 398.852L43.0157 398.852L43.0157 407.641L11.0001 407.641L11.0001 398.852ZM11.0001 413.805L43.0157 413.805L43.0157 426.473L27.1251 431.277L43.0157 436.363L43.0157 448.937L11.0001 448.937L11.0001 440.16L34.0391 440.16L11.0001 432.953L11.0001 427.727L34.0391 420.672L11.0001 420.672L11.0001 413.805Z" fill="white"/>
<path d="M108 128.222L120.006 128.222L120.006 136.861L117.488 136.861L117.488 131.518L115.343 131.518L115.343 134.919L112.825 134.919L112.825 131.518L110.518 131.518L110.518 137.112L108 137.112L108 128.222ZM120.006 138.505L120.006 141.796L112.966 141.796C112.43 141.796 112.033 141.817 111.775 141.858C111.517 141.902 111.278 141.984 111.059 142.104C110.816 142.25 110.622 142.467 110.479 142.754C110.338 143.042 110.268 143.352 110.268 143.686C110.268 144.079 110.363 144.436 110.553 144.758C110.744 145.081 110.991 145.3 111.296 145.417C111.63 145.549 112.187 145.615 112.966 145.615L120.006 145.615L120.006 148.208L112.43 148.208C111.689 148.208 111.097 148.145 110.654 148.019C110.215 147.893 109.792 147.667 109.384 147.342C109.047 147.067 108.759 146.726 108.519 146.318C108.278 145.914 108.097 145.457 107.974 144.947C107.848 144.44 107.785 143.894 107.785 143.308C107.785 142.822 107.823 142.368 107.899 141.946C107.975 141.524 108.089 141.136 108.242 140.781C108.397 140.427 108.586 140.113 108.809 139.841C109.031 139.568 109.283 139.344 109.565 139.168C109.951 138.917 110.353 138.742 110.769 138.646C111.188 138.552 111.741 138.505 112.43 138.505L120.006 138.505ZM108 150.423L120.006 150.423L120.006 153.429L113.902 157.678L120.006 157.678L120.006 160.271L108 160.271L108 157.678L114.803 152.998L108 152.998L108 150.423ZM113.994 161.941C115.257 161.941 116.359 162.165 117.299 162.613C118.239 163.062 118.959 163.696 119.457 164.516C119.955 165.336 120.204 166.278 120.204 167.342C120.204 168.215 120.046 168.988 119.729 169.662C119.416 170.339 118.979 170.904 118.42 171.358C117.86 171.812 117.221 172.152 116.504 172.378C115.786 172.606 115.021 172.721 114.21 172.721C113.334 172.721 112.507 172.614 111.731 172.4C110.955 172.189 110.272 171.865 109.683 171.429C109.094 170.995 108.63 170.433 108.29 169.741C107.953 169.053 107.785 168.253 107.785 167.342C107.785 166.586 107.915 165.88 108.176 165.224C108.437 164.57 108.826 163.996 109.345 163.501C109.866 163.009 110.517 162.625 111.296 162.35C112.078 162.077 112.978 161.941 113.994 161.941ZM113.994 165.395C111.451 165.395 110.18 166.044 110.18 167.342C110.18 168.068 110.533 168.571 111.239 168.849C111.945 169.127 112.929 169.267 114.192 169.267C116.603 169.267 117.809 168.625 117.809 167.342C117.809 166.864 117.653 166.482 117.343 166.195C117.032 165.908 116.594 165.703 116.029 165.58C115.466 165.457 114.788 165.395 113.994 165.395ZM108 174.399L120.006 174.399L120.006 177.695L108 177.695L108 174.399ZM108 178.785L120.006 182.564L120.006 186.326L108 190.053L108 186.629L110.378 185.948L110.378 182.169L108 181.501L108 178.785ZM112.896 182.925L112.896 185.263L116.93 184.094L112.896 182.925Z" fill="white"/>
<path d="M102 195.151L114.006 195.151L114.006 198.447L104.518 198.447L104.518 203.576L102 203.576L102 195.151ZM102 204.942L114.006 204.942L114.006 208.238L102 208.238L102 204.942ZM102 210.55L114.006 210.55L114.006 215.3L108.047 217.102L114.006 219.009L114.006 223.725L102 223.725L102 220.433L110.64 220.433L102 217.73L102 215.771L110.64 213.125L102 213.125L102 210.55ZM102 226.001L114.006 226.001L114.006 234.641L111.488 234.641L111.488 229.297L109.343 229.297L109.343 232.698L106.825 232.698L106.825 229.297L104.518 229.297L104.518 234.891L102 234.891L102 226.001ZM102 236.337L114.006 236.337L114.006 241.593C114.006 242.703 113.892 243.622 113.663 244.348C113.467 244.987 113.082 245.505 112.507 245.904C111.936 246.305 111.296 246.506 110.587 246.506C109.726 246.506 109.011 246.23 108.442 245.68C108.12 245.375 107.821 244.912 107.546 244.291L102 246.471L102 242.779L106.966 241.127L106.966 239.615L102 239.615L102 236.337ZM111.721 239.615L109.216 239.615L109.216 241.558C109.216 242.026 109.327 242.393 109.55 242.656C109.773 242.92 110.082 243.052 110.477 243.052C110.873 243.052 111.179 242.921 111.396 242.661C111.612 242.403 111.721 242.035 111.721 241.558L111.721 239.615ZM102 248.185L114.006 248.185L114.006 256.824L111.488 256.824L111.488 251.48L109.343 251.48L109.343 254.882L106.825 254.882L106.825 251.48L104.518 251.48L104.518 257.075L102 257.075L102 248.185ZM102 258.521L114.006 258.521L114.006 261.526L107.902 265.776L114.006 265.776L114.006 268.369L102 268.369L102 265.776L108.803 261.096L102 261.096L102 258.521ZM106.285 277.87L105.727 280.3C105.103 280.133 104.547 279.897 104.061 279.592C103.578 279.291 103.166 278.927 102.826 278.502C102.486 278.078 102.227 277.599 102.048 277.065C101.873 276.532 101.785 275.959 101.785 275.347C101.785 274.603 101.965 273.824 102.325 273.009C102.686 272.195 103.314 271.496 104.211 270.913C105.11 270.33 106.299 270.039 107.779 270.039C108.643 270.039 109.462 270.151 110.235 270.377C111.012 270.603 111.699 270.942 112.296 271.396C112.894 271.854 113.361 272.425 113.698 273.11C114.035 273.799 114.204 274.593 114.204 275.492C114.204 276.415 114.002 277.243 113.597 277.975C113.193 278.71 112.666 279.282 112.015 279.689C111.368 280.096 110.7 280.3 110.011 280.3L109.849 277.219C111.155 277.064 111.809 276.494 111.809 275.51C111.809 274.818 111.484 274.309 110.833 273.98C110.186 273.655 109.173 273.493 107.796 273.493C106.976 273.493 106.307 273.567 105.788 273.717C105.273 273.866 104.89 274.098 104.641 274.411C104.392 274.725 104.268 275.127 104.268 275.62C104.268 276.118 104.386 276.522 104.624 276.833C104.861 277.146 105.107 277.366 105.362 277.492C105.617 277.621 105.924 277.747 106.285 277.87ZM102 281.882L114.006 281.882L114.006 290.521L111.488 290.521L111.488 285.178L109.343 285.178L109.343 288.579L106.825 288.579L106.825 285.178L104.518 285.178L104.518 290.772L102 290.772L102 281.882Z" fill="white"/>
<path d="M108 297.134L120.006 297.134L120.006 305.773L117.488 305.773L117.488 300.43L115.343 300.43L115.343 303.831L112.825 303.831L112.825 300.43L110.518 300.43L110.518 306.024L108 306.024L108 297.134ZM108 307.47L120.006 307.47L120.006 312.976C120.006 313.958 119.862 314.792 119.575 315.481C119.288 316.169 118.868 316.692 118.314 317.05C117.76 317.407 117.094 317.586 116.315 317.586C115.644 317.586 115.031 317.437 114.478 317.138C113.927 316.842 113.502 316.433 113.203 315.912C112.969 315.49 112.802 315.036 112.702 314.549C112.603 314.063 112.553 313.455 112.553 312.726L112.553 310.766L108 310.766L108 307.47ZM117.721 310.766L114.93 310.766L114.93 312.383C114.93 313.004 115.037 313.451 115.251 313.723C115.465 313.996 115.814 314.132 116.297 314.132C116.78 314.132 117.138 313.996 117.369 313.723C117.604 313.451 117.721 313.004 117.721 312.383L117.721 310.766ZM108 319.212L120.006 319.212L120.006 322.508L115.379 322.508L115.379 325.852L120.006 325.852L120.006 329.166L108 329.166L108 325.852L112.86 325.852L112.86 322.508L108 322.508L108 319.212ZM108 331.429L120.006 331.429L120.006 340.068L117.488 340.068L117.488 334.725L115.343 334.725L115.343 338.126L112.825 338.126L112.825 334.725L110.518 334.725L110.518 340.319L108 340.319L108 331.429ZM108 341.782L120.006 341.782L120.006 346.533L114.047 348.334L120.006 350.242L120.006 354.957L108 354.957L108 351.666L116.64 351.666L108 348.963L108 347.003L116.64 344.357L108 344.357L108 341.782ZM108 357.233L120.006 357.233L120.006 365.873L117.488 365.873L117.488 360.529L115.343 360.529L115.343 363.931L112.825 363.931L112.825 360.529L110.518 360.529L110.518 366.124L108 366.124L108 357.233ZM108 367.569L120.006 367.569L120.006 372.825C120.006 373.936 119.892 374.854 119.663 375.581C119.467 376.219 119.082 376.738 118.507 377.136C117.936 377.538 117.296 377.738 116.587 377.738C115.726 377.738 115.011 377.463 114.442 376.912C114.12 376.607 113.821 376.145 113.546 375.523L108 377.703L108 374.012L112.966 372.359L112.966 370.848L108 370.848L108 367.569ZM117.721 370.848L115.216 370.848L115.216 372.79C115.216 373.259 115.327 373.625 115.55 373.889C115.773 374.152 116.082 374.284 116.477 374.284C116.873 374.284 117.179 374.154 117.396 373.893C117.612 373.635 117.721 373.268 117.721 372.79L117.721 370.848ZM108 378.213L120.006 381.992L120.006 385.754L108 389.48L108 386.057L110.378 385.376L110.378 381.597L108 380.929L108 378.213ZM112.896 382.353L112.896 384.69L116.93 383.521L112.896 382.353Z" fill="white"/>
<path d="M108.28 36.584L110.058 38.8447C109.452 39.2061 109.014 39.6309 108.744 40.1191C108.474 40.6107 108.339 41.2259 108.339 41.9648C108.339 42.5931 108.45 43.0928 108.671 43.4639C108.896 43.8382 109.192 44.0254 109.56 44.0254C110.038 44.0254 110.403 43.6217 110.653 42.8145C110.907 42.0072 111.156 41.1673 111.401 40.2949C111.648 39.4258 112.061 38.6803 112.641 38.0586C113.223 37.4368 114.104 37.126 115.282 37.126C116.106 37.126 116.843 37.3457 117.494 37.7852C118.149 38.2246 118.656 38.8366 119.018 39.6211C119.379 40.4089 119.56 41.2975 119.56 42.2871C119.56 44.3151 118.866 45.8939 117.48 47.0234L115.741 44.8848C116.204 44.4909 116.532 44.1035 116.728 43.7227C116.923 43.3418 117.021 42.8893 117.021 42.3652C117.021 41.8346 116.915 41.3984 116.703 41.0566C116.492 40.7148 116.225 40.5439 115.902 40.5439C115.437 40.5439 115.09 40.9395 114.862 41.7305C114.638 42.5215 114.407 43.3711 114.169 44.2793C113.931 45.1908 113.516 45.9622 112.924 46.5937C112.335 47.2285 111.433 47.5459 110.219 47.5459C109.327 47.5459 108.544 47.3262 107.87 46.8867C107.196 46.4505 106.676 45.8304 106.308 45.0264C105.943 44.2223 105.761 43.2946 105.761 42.2432C105.761 39.5088 106.601 37.6224 108.28 36.584ZM106 47.5312L119.34 51.7305L119.34 55.9102L106 60.0508L106 56.2471L108.642 55.4902L108.642 51.291L106 50.5488L106 47.5312ZM111.44 52.1309L111.44 54.7285L115.922 53.4297L111.44 52.1309ZM119.34 61.1934L119.34 64.8506L111.518 64.8506C110.922 64.8506 110.481 64.8734 110.194 64.9189C109.908 64.9678 109.643 65.0589 109.399 65.1924C109.128 65.3551 108.914 65.596 108.754 65.915C108.598 66.234 108.52 66.5791 108.52 66.9502C108.52 67.3864 108.625 67.7835 108.837 68.1416C109.049 68.4997 109.324 68.7438 109.662 68.874C110.033 69.0205 110.652 69.0937 111.518 69.0937L119.34 69.0937L119.34 71.9746L110.922 71.9746C110.098 71.9746 109.441 71.9046 108.949 71.7646C108.461 71.6247 107.991 71.374 107.538 71.0127C107.164 70.7067 106.843 70.3275 106.576 69.875C106.309 69.4258 106.108 68.918 105.971 68.3516C105.831 67.7884 105.761 67.1813 105.761 66.5303C105.761 65.9899 105.803 65.4853 105.888 65.0166C105.972 64.5478 106.099 64.1165 106.269 63.7227C106.441 63.3288 106.651 62.9805 106.899 62.6777C107.146 62.375 107.426 62.126 107.738 61.9307C108.168 61.6507 108.614 61.457 109.076 61.3496C109.542 61.2454 110.157 61.1934 110.922 61.1934L119.34 61.1934ZM106 74.4355L119.34 74.4355L119.34 79.0352C119.34 80.6823 118.94 82.1162 118.139 83.3369C117.006 85.0166 115.186 85.8564 112.68 85.8564C111.391 85.8564 110.266 85.6253 109.306 85.1631C108.345 84.7008 107.584 84.0254 107.021 83.1367C106.392 82.1081 106.059 81.0485 106.02 79.958C106.007 79.7822 106 79.4681 106 79.0156L106 74.4355ZM116.659 78.0977L108.622 78.0977C108.629 79.0677 108.765 79.8376 109.032 80.4072C109.303 80.9769 109.737 81.387 110.336 81.6377C110.935 81.8883 111.75 82.0137 112.782 82.0137C114.644 82.0137 115.831 81.4342 116.342 80.2754C116.553 79.7969 116.659 79.1637 116.659 78.376L116.659 78.0977ZM106 85.7734L119.34 89.9727L119.34 94.1523L106 98.293L106 94.4893L108.642 93.7324L108.642 89.5332L106 88.791L106 85.7734ZM111.44 90.373L111.44 92.9707L115.922 91.6719L111.44 90.373ZM106 99.4941L119.34 99.4941L119.34 104.094C119.34 105.741 118.94 107.175 118.139 108.396C117.006 110.075 115.186 110.915 112.68 110.915C111.391 110.915 110.266 110.684 109.306 110.222C108.345 109.759 107.584 109.084 107.021 108.195C106.392 107.167 106.059 106.107 106.02 105.017C106.007 104.841 106 104.527 106 104.074L106 99.4941ZM116.659 103.156L108.622 103.156C108.629 104.126 108.765 104.896 109.032 105.466C109.303 106.035 109.737 106.446 110.336 106.696C110.935 106.947 111.75 107.072 112.782 107.072C114.644 107.072 115.831 106.493 116.342 105.334C116.553 104.855 116.659 104.222 116.659 103.435L116.659 103.156ZM106 112.775L119.34 112.775L119.34 122.375L116.542 122.375L116.542 116.437L114.159 116.437L114.159 120.217L111.361 120.217L111.361 116.437L108.798 116.437L108.798 122.653L106 122.653L106 112.775Z" fill="white"/>
<path d="M57.2804 300.584L59.0577 302.845C58.4523 303.206 58.0144 303.631 57.7443 304.119C57.4741 304.611 57.339 305.226 57.339 305.965C57.339 306.593 57.4497 307.093 57.671 307.464C57.8956 307.838 58.1919 308.025 58.5597 308.025C59.0382 308.025 59.4028 307.622 59.6534 306.814C59.9073 306.007 60.1564 305.167 60.4005 304.295C60.6479 303.426 61.0613 302.68 61.6407 302.059C62.2234 301.437 63.104 301.126 64.2823 301.126C65.1059 301.126 65.8432 301.346 66.4943 301.785C67.1486 302.225 67.6564 302.837 68.0177 303.621C68.379 304.409 68.5597 305.298 68.5597 306.287C68.5597 308.315 67.8663 309.894 66.4796 311.023L64.7413 308.885C65.2036 308.491 65.5323 308.104 65.7277 307.723C65.923 307.342 66.0206 306.889 66.0206 306.365C66.0206 305.835 65.9148 305.398 65.7032 305.057C65.4917 304.715 65.2247 304.544 64.9025 304.544C64.437 304.544 64.0903 304.939 63.8624 305.73C63.6378 306.521 63.4067 307.371 63.1691 308.279C62.9314 309.191 62.5164 309.962 61.9239 310.594C61.3348 311.229 60.4331 311.546 59.2189 311.546C58.3269 311.546 57.5441 311.326 56.8702 310.887C56.1964 310.451 55.6756 309.83 55.3077 309.026C54.9432 308.222 54.7609 307.295 54.7609 306.243C54.7609 303.509 55.6007 301.622 57.2804 300.584ZM55.0001 311.531L68.34 315.73L68.34 319.91L55.0001 324.051L55.0001 320.247L57.6417 319.49L57.6417 315.291L55.0001 314.549L55.0001 311.531ZM60.4396 316.131L60.4396 318.729L64.922 317.43L60.4396 316.131ZM68.34 325.193L68.34 328.851L60.5177 328.851C59.922 328.851 59.4809 328.873 59.1945 328.919C58.908 328.968 58.6427 329.059 58.3986 329.192C58.1284 329.355 57.9135 329.596 57.754 329.915C57.5978 330.234 57.5196 330.579 57.5196 330.95C57.5196 331.386 57.6254 331.784 57.837 332.142C58.0486 332.5 58.3237 332.744 58.6622 332.874C59.0333 333.021 59.6518 333.094 60.5177 333.094L68.34 333.094L68.34 335.975L59.922 335.975C59.0984 335.975 58.4409 335.905 57.9493 335.765C57.4611 335.625 56.9907 335.374 56.5382 335.013C56.1639 334.707 55.8432 334.327 55.5763 333.875C55.3094 333.426 55.1075 332.918 54.9708 332.352C54.8308 331.788 54.7609 331.181 54.7609 330.53C54.7609 329.99 54.8032 329.485 54.8878 329.017C54.9724 328.548 55.0994 328.117 55.2687 327.723C55.4412 327.329 55.6512 326.98 55.8986 326.678C56.1459 326.375 56.4259 326.126 56.7384 325.931C57.1681 325.651 57.614 325.457 58.0763 325.35C58.5418 325.245 59.157 325.193 59.922 325.193L68.34 325.193ZM55.0001 338.436L68.34 338.436L68.34 343.035C68.34 344.682 67.9396 346.116 67.1388 347.337C66.006 349.017 64.1863 349.856 61.6798 349.856C60.3907 349.856 59.2661 349.625 58.3058 349.163C57.3455 348.701 56.5838 348.025 56.0206 347.137C55.3924 346.108 55.0587 345.048 55.0196 343.958C55.0066 343.782 55.0001 343.468 55.0001 343.016L55.0001 338.436ZM65.6593 342.098L57.6222 342.098C57.6287 343.068 57.7654 343.838 58.0323 344.407C58.3025 344.977 58.7371 345.387 59.336 345.638C59.935 345.888 60.7504 346.014 61.7823 346.014C63.6443 346.014 64.8308 345.434 65.3419 344.275C65.5535 343.797 65.6593 343.164 65.6593 342.376L65.6593 342.098ZM55.0001 349.773L68.34 353.973L68.34 358.152L55.0001 362.293L55.0001 358.489L57.6417 357.732L57.6417 353.533L55.0001 352.791L55.0001 349.773ZM60.4396 354.373L60.4396 356.971L64.922 355.672L60.4396 354.373ZM55.0001 363.494L68.34 363.494L68.34 368.094C68.34 369.741 67.9396 371.175 67.1388 372.396C66.006 374.075 64.1863 374.915 61.6798 374.915C60.3907 374.915 59.2661 374.684 58.3058 374.222C57.3455 373.759 56.5838 373.084 56.0206 372.195C55.3924 371.167 55.0587 370.107 55.0196 369.017C55.0066 368.841 55.0001 368.527 55.0001 368.074L55.0001 363.494ZM65.6593 367.156L57.6222 367.156C57.6287 368.126 57.7654 368.896 58.0323 369.466C58.3025 370.035 58.7371 370.446 59.336 370.696C59.935 370.947 60.7504 371.072 61.7823 371.072C63.6443 371.072 64.8308 370.493 65.3419 369.334C65.5535 368.855 65.6593 368.222 65.6593 367.435L65.6593 367.156ZM55.0001 376.775L68.3399 376.775L68.3399 386.375L65.5421 386.375L65.5421 380.437L63.1593 380.437L63.1593 384.217L60.3614 384.217L60.3614 380.437L57.798 380.437L57.798 386.653L55.0001 386.653L55.0001 376.775Z" fill="white"/>
<path d="M86.0001 103.019L98.006 103.019L98.006 106.314L88.5182 106.314L88.5182 111.443L86.0001 111.443L86.0001 103.019ZM86.0001 112.414L98.006 116.193L98.006 119.955L86.0001 123.682L86.0001 120.258L88.3776 119.577L88.3776 115.798L86.0001 115.13L86.0001 112.414ZM90.8956 116.554L90.8956 118.892L94.9298 117.723L90.8956 116.554ZM90.2848 132L89.7267 134.431C89.1027 134.264 88.5475 134.028 88.0612 133.723C87.5778 133.421 87.1661 133.058 86.8263 132.633C86.4864 132.208 86.2272 131.729 86.0485 131.196C85.8727 130.663 85.7848 130.09 85.7848 129.478C85.7848 128.734 85.965 127.955 86.3253 127.14C86.6857 126.326 87.3141 125.627 88.2106 125.044C89.11 124.461 90.2994 124.169 91.7789 124.169C92.6432 124.169 93.462 124.282 94.2355 124.508C95.0118 124.733 95.6988 125.073 96.2965 125.527C96.8942 125.984 97.3614 126.556 97.6984 127.241C98.0353 127.93 98.2037 128.724 98.2037 129.623C98.2037 130.546 98.0016 131.374 97.5973 132.106C97.193 132.841 96.6656 133.413 96.0153 133.82C95.3678 134.227 94.6998 134.431 94.0113 134.431L93.8487 131.35C95.1554 131.195 95.8087 130.625 95.8087 129.641C95.8087 128.949 95.4835 128.439 94.8331 128.111C94.1857 127.786 93.1735 127.624 91.7965 127.624C90.9762 127.624 90.3068 127.698 89.7882 127.848C89.2726 127.997 88.8903 128.229 88.6412 128.542C88.3922 128.855 88.2677 129.258 88.2677 129.75C88.2677 130.249 88.3863 130.653 88.6237 130.963C88.861 131.277 89.107 131.497 89.3619 131.623C89.6168 131.751 89.9244 131.877 90.2848 132ZM98.006 135.96L98.006 139.251L90.9659 139.251C90.4298 139.251 90.0328 139.272 89.775 139.313C89.5172 139.357 89.2784 139.439 89.0587 139.559C88.8155 139.706 88.6222 139.922 88.4786 140.209C88.338 140.497 88.2677 140.807 88.2677 141.141C88.2677 141.534 88.3629 141.891 88.5533 142.213C88.7438 142.536 88.9913 142.755 89.296 142.873C89.63 143.004 90.1866 143.07 90.9659 143.07L98.006 143.07L98.006 145.663L90.4298 145.663C89.6886 145.663 89.0968 145.6 88.6544 145.474C88.215 145.348 87.7916 145.123 87.3844 144.797C87.0475 144.522 86.7589 144.181 86.5187 143.773C86.2784 143.369 86.0968 142.912 85.9737 142.402C85.8478 141.896 85.7848 141.349 85.7848 140.763C85.7848 140.277 85.8229 139.823 85.899 139.401C85.9752 138.979 86.0895 138.591 86.2418 138.236C86.3971 137.882 86.5861 137.568 86.8087 137.296C87.0314 137.023 87.2833 136.799 87.5646 136.624C87.9513 136.372 88.3527 136.197 88.7687 136.101C89.1876 136.007 89.7413 135.96 90.4298 135.96L98.006 135.96ZM86.0001 147.878L98.006 147.878L98.006 150.884L91.902 155.133L98.006 155.133L98.006 157.726L86.0001 157.726L86.0001 155.133L92.8028 150.453L86.0001 150.453L86.0001 147.878ZM86.0001 158.785L98.006 162.564L98.006 166.326L86.0001 170.053L86.0001 166.629L88.3775 165.948L88.3776 162.169L86.0001 161.501L86.0001 158.785ZM90.8956 162.925L90.8956 165.263L94.9298 164.094L90.8956 162.925Z" fill="white"/>
<path d="M79.6652 187.022L78.797 190.803C77.8263 190.543 76.9627 190.176 76.2062 189.702C75.4542 189.233 74.8139 188.668 74.2853 188.007C73.7566 187.346 73.3533 186.601 73.0753 185.771C72.8019 184.942 72.6652 184.051 72.6652 183.099C72.6652 181.941 72.9454 180.729 73.506 179.462C74.0665 178.195 75.0441 177.108 76.4386 176.201C77.8377 175.294 79.6879 174.841 81.9894 174.841C83.3338 174.841 84.6075 175.016 85.8107 175.367C87.0184 175.718 88.087 176.247 89.0167 176.953C89.9464 177.664 90.6733 178.553 91.1974 179.619C91.7215 180.69 91.9835 181.925 91.9835 183.324C91.9835 184.76 91.6691 186.047 91.0402 187.187C90.4113 188.33 89.5909 189.219 88.5792 189.853C87.5721 190.486 86.533 190.803 85.462 190.803L85.2091 186.011C87.2417 185.769 88.2579 184.883 88.2579 183.352C88.2579 182.276 87.7521 181.483 86.7404 180.973C85.7332 180.467 84.1586 180.214 82.0167 180.214C80.7407 180.214 79.6993 180.33 78.8927 180.562C78.0906 180.795 77.4959 181.155 77.1085 181.643C76.7211 182.13 76.5275 182.757 76.5275 183.522C76.5275 184.297 76.712 184.926 77.0812 185.409C77.4503 185.897 77.8331 186.239 78.2296 186.435C78.6261 186.635 79.1046 186.831 79.6652 187.022ZM73.0001 193.264L91.6759 193.264L91.6759 206.703L87.7589 206.703L87.7589 198.391L84.423 198.391L84.423 203.682L80.506 203.682L80.506 198.391L76.9171 198.391L76.9171 207.093L73.0001 207.093L73.0001 193.264ZM73.0001 209.369L91.6759 209.369L91.6759 214.496L76.9171 214.496L76.9171 222.474L73.0001 222.474L73.0001 209.369ZM73.0001 224.6L91.6759 224.6L91.6759 238.039L87.7589 238.039L87.7589 229.727L84.423 229.727L84.423 235.018L80.506 235.018L80.506 229.727L76.9171 229.727L76.9171 238.429L73.0001 238.429L73.0001 224.6ZM76.1925 239.584L78.6808 242.749C77.8331 243.255 77.2202 243.85 76.8419 244.533C76.4636 245.221 76.2745 246.083 76.2745 247.117C76.2745 247.997 76.4295 248.696 76.7394 249.216C77.0538 249.74 77.4685 250.002 77.9835 250.002C78.6534 250.002 79.1638 249.437 79.5148 248.307C79.8702 247.176 80.2189 246.001 80.5607 244.779C80.907 243.562 81.4858 242.519 82.297 241.648C83.1127 240.778 84.3455 240.343 85.9952 240.343C87.1482 240.343 88.1804 240.65 89.0919 241.266C90.0079 241.881 90.7189 242.738 91.2247 243.836C91.7306 244.939 91.9835 246.183 91.9835 247.568C91.9835 250.408 91.0128 252.618 89.0714 254.199L86.6378 251.205C87.2849 250.654 87.7452 250.111 88.0187 249.578C88.2921 249.045 88.4288 248.411 88.4288 247.678C88.4288 246.935 88.2807 246.324 87.9845 245.846C87.6883 245.367 87.3146 245.128 86.8634 245.128C86.2117 245.128 85.7263 245.682 85.4073 246.789C85.0929 247.896 84.7693 249.086 84.4366 250.357C84.1039 251.633 83.5229 252.714 82.6935 253.598C81.8686 254.486 80.6062 254.931 78.9064 254.931C77.6577 254.931 76.5616 254.623 75.6183 254.008C74.6749 253.397 73.9457 252.529 73.4308 251.403C72.9204 250.278 72.6651 248.979 72.6651 247.507C72.6651 243.679 73.8409 241.038 76.1925 239.584ZM73.0001 260.796L87.7589 260.796L87.7589 255.73L91.6759 255.73L91.6759 270.988L87.7589 270.988L87.7589 265.923L73.0001 265.923L73.0001 260.796ZM73.0001 273.873L91.6759 273.873L91.6759 279L73.0001 279L73.0001 273.873ZM73.0001 280.695L91.6759 286.574L91.6759 292.426L73.0001 298.223L73.0001 292.897L76.6983 291.838L76.6983 285.959L73.0001 284.92L73.0001 280.695ZM80.6153 287.135L80.6153 290.771L86.8907 288.953L80.6153 287.135Z" fill="white"/>
<path d="M85.0001 304.134L97.006 304.134L97.006 312.773L94.4879 312.773L94.4879 307.43L92.3434 307.43L92.3434 310.831L89.8253 310.831L89.8253 307.43L87.5182 307.43L87.5182 313.024L85.0001 313.024L85.0001 304.134ZM97.006 314.417L97.006 317.708L89.9659 317.708C89.4298 317.708 89.0328 317.729 88.775 317.77C88.5172 317.814 88.2784 317.896 88.0587 318.016C87.8155 318.163 87.6222 318.379 87.4786 318.667C87.338 318.954 87.2677 319.264 87.2677 319.598C87.2677 319.991 87.3629 320.348 87.5533 320.67C87.7438 320.993 87.9913 321.212 88.296 321.33C88.63 321.461 89.1866 321.527 89.9659 321.527L97.006 321.527L97.006 324.12L89.4298 324.12C88.6886 324.12 88.0968 324.057 87.6544 323.931C87.215 323.805 86.7916 323.58 86.3844 323.254C86.0475 322.979 85.7589 322.638 85.5187 322.23C85.2784 321.826 85.0968 321.369 84.9738 320.859C84.8478 320.353 84.7848 319.806 84.7848 319.22C84.7848 318.734 84.8229 318.28 84.899 317.858C84.9752 317.436 85.0895 317.048 85.2418 316.693C85.3971 316.339 85.5861 316.025 85.8087 315.753C86.0314 315.48 86.2833 315.256 86.5646 315.081C86.9513 314.829 87.3527 314.654 87.7687 314.558C88.1876 314.464 88.7413 314.417 89.4298 314.417L97.006 314.417ZM85.0001 326.335L97.006 326.335L97.006 329.341L90.902 333.59L97.006 333.59L97.006 336.183L85.0001 336.183L85.0001 333.59L91.8029 328.91L85.0001 328.91L85.0001 326.335ZM90.9943 337.853C92.257 337.853 93.3585 338.077 94.2989 338.525C95.2394 338.974 95.9586 339.608 96.4567 340.428C96.9547 341.249 97.2037 342.19 97.2037 343.254C97.2037 344.127 97.0455 344.9 96.7291 345.574C96.4156 346.251 95.9791 346.816 95.4195 347.271C94.86 347.725 94.2213 348.064 93.5035 348.29C92.7858 348.519 92.0211 348.633 91.2096 348.633C90.3336 348.633 89.5074 348.526 88.7311 348.312C87.9547 348.101 87.2721 347.777 86.6832 347.341C86.0944 346.907 85.63 346.345 85.2902 345.653C84.9532 344.965 84.7848 344.165 84.7848 343.254C84.7848 342.498 84.9152 341.792 85.1759 341.136C85.4366 340.482 85.8263 339.908 86.3448 339.413C86.8663 338.921 87.5167 338.537 88.296 338.262C89.0782 337.989 89.9777 337.853 90.9943 337.853ZM90.9943 341.307C88.4513 341.307 87.1798 341.956 87.1798 343.254C87.1798 343.98 87.5328 344.483 88.2389 344.761C88.9449 345.04 89.9293 345.179 91.192 345.179C93.6031 345.179 94.8087 344.537 94.8087 343.254C94.8087 342.776 94.6534 342.394 94.3429 342.107C94.0323 341.82 93.5944 341.615 93.0289 341.492C92.4664 341.369 91.7882 341.307 90.9943 341.307ZM85.0001 350.312L97.006 350.312L97.006 353.607L85.0001 353.607L85.0001 350.312ZM85.0001 354.697L97.006 358.477L97.006 362.238L85.0001 365.965L85.0001 362.542L87.3776 361.86L87.3776 358.081L85.0001 357.413L85.0001 354.697ZM89.8956 358.837L89.8956 361.175L93.9298 360.006L89.8956 358.837Z" fill="white"/>
<path d="M73.0001 368.019L85.006 368.019L85.006 371.314L75.5182 371.314L75.5182 376.443L73.0001 376.443L73.0001 368.019ZM73.0001 377.414L85.006 381.193L85.006 384.955L73.0001 388.682L73.0001 385.258L75.3776 384.577L75.3776 380.798L73.0001 380.13L73.0001 377.414ZM77.8956 381.554L77.8956 383.892L81.9298 382.723L77.8956 381.554ZM77.2848 397L76.7267 399.431C76.1027 399.264 75.5475 399.028 75.0612 398.723C74.5778 398.421 74.1661 398.058 73.8263 397.633C73.4864 397.208 73.2272 396.729 73.0485 396.196C72.8727 395.663 72.7848 395.09 72.7848 394.478C72.7848 393.734 72.965 392.955 73.3253 392.14C73.6857 391.326 74.3141 390.627 75.2106 390.044C76.11 389.461 77.2994 389.169 78.7789 389.169C79.6432 389.169 80.462 389.282 81.2355 389.508C82.0118 389.733 82.6988 390.073 83.2965 390.527C83.8942 390.984 84.3614 391.556 84.6984 392.241C85.0353 392.93 85.2037 393.724 85.2037 394.623C85.2037 395.546 85.0016 396.374 84.5973 397.106C84.193 397.841 83.6656 398.413 83.0153 398.82C82.3678 399.227 81.6998 399.431 81.0113 399.431L80.8487 396.35C82.1554 396.195 82.8087 395.625 82.8087 394.641C82.8087 393.949 82.4835 393.439 81.8331 393.111C81.1857 392.786 80.1735 392.624 78.7965 392.624C77.9762 392.624 77.3068 392.698 76.7882 392.848C76.2726 392.997 75.8903 393.229 75.6412 393.542C75.3922 393.855 75.2677 394.258 75.2677 394.75C75.2677 395.249 75.3863 395.653 75.6237 395.963C75.861 396.277 76.107 396.497 76.3619 396.623C76.6168 396.751 76.9244 396.877 77.2848 397ZM85.006 400.96L85.006 404.251L77.9659 404.251C77.4298 404.251 77.0328 404.272 76.775 404.313C76.5172 404.357 76.2784 404.439 76.0587 404.559C75.8155 404.706 75.6222 404.922 75.4786 405.209C75.338 405.497 75.2677 405.807 75.2677 406.141C75.2677 406.534 75.3629 406.891 75.5533 407.213C75.7438 407.536 75.9913 407.755 76.296 407.873C76.63 408.004 77.1866 408.07 77.9659 408.07L85.006 408.07L85.006 410.663L77.4298 410.663C76.6886 410.663 76.0968 410.6 75.6544 410.474C75.215 410.348 74.7916 410.123 74.3844 409.797C74.0475 409.522 73.7589 409.181 73.5187 408.773C73.2784 408.369 73.0968 407.912 72.9737 407.402C72.8478 406.896 72.7848 406.349 72.7848 405.763C72.7848 405.277 72.8229 404.823 72.899 404.401C72.9752 403.979 73.0895 403.591 73.2418 403.236C73.3971 402.882 73.5861 402.568 73.8087 402.296C74.0314 402.023 74.2833 401.799 74.5646 401.624C74.9513 401.372 75.3527 401.197 75.7687 401.101C76.1876 401.007 76.7413 400.96 77.4298 400.96L85.006 400.96ZM73.0001 412.878L85.006 412.878L85.006 415.884L78.902 420.133L85.006 420.133L85.006 422.726L73.0001 422.726L73.0001 420.133L79.8028 415.453L73.0001 415.453L73.0001 412.878ZM73.0001 423.785L85.006 427.564L85.006 431.326L73.0001 435.053L73.0001 431.629L75.3775 430.948L75.3776 427.169L73.0001 426.501L73.0001 423.785ZM77.8956 427.925L77.8956 430.263L81.9298 429.094L77.8956 427.925Z" fill="white"/>
<path d="M51.0001 215.265L63.006 215.265L63.006 218.561L58.3785 218.561L58.3785 221.905L63.006 221.905L63.006 225.218L51.0001 225.218L51.0001 221.905L55.8605 221.905L55.8605 218.561L51.0001 218.561L51.0001 215.265ZM51.0001 226.277L63.006 230.057L63.006 233.818L51.0001 237.545L51.0001 234.122L53.3776 233.44L53.3776 229.661L51.0001 228.993L51.0001 226.277ZM55.8956 230.417L55.8956 232.755L59.9298 231.586L55.8956 230.417ZM51.0001 238.644L63.006 238.644L63.006 241.939L53.5182 241.939L53.5182 247.068L51.0001 247.068L51.0001 238.644ZM55.2848 255.215L54.7267 257.646C54.1027 257.479 53.5475 257.243 53.0611 256.938C52.5777 256.636 52.1661 256.273 51.8263 255.848C51.4864 255.423 51.2272 254.944 51.0485 254.411C50.8727 253.878 50.7848 253.305 50.7848 252.693C50.7848 251.949 50.965 251.169 51.3253 250.355C51.6857 249.541 52.3141 248.842 53.2106 248.259C54.11 247.676 55.2994 247.384 56.7789 247.384C57.6432 247.384 58.462 247.497 59.2355 247.723C60.0118 247.948 60.6988 248.288 61.2965 248.742C61.8942 249.199 62.3614 249.771 62.6984 250.456C63.0353 251.145 63.2037 251.938 63.2037 252.838C63.2037 253.761 63.0016 254.588 62.5973 255.321C62.193 256.056 61.6656 256.627 61.0152 257.035C60.3678 257.442 59.6998 257.646 59.0113 257.646L58.8487 254.565C60.1554 254.41 60.8087 253.84 60.8087 252.855C60.8087 252.164 60.4835 251.654 59.8331 251.326C59.1857 251.001 58.1735 250.838 56.7965 250.838C55.9762 250.838 55.3068 250.913 54.7882 251.062C54.2726 251.212 53.8903 251.443 53.6412 251.757C53.3922 252.07 53.2677 252.473 53.2677 252.965C53.2677 253.463 53.3863 253.868 53.6236 254.178C53.861 254.492 54.107 254.711 54.3619 254.837C54.6168 254.966 54.9244 255.092 55.2848 255.215ZM51.0001 261.012L56.0934 261.012L63.006 257.017L63.006 260.744L58.9191 262.976L63.006 265.244L63.006 268.179L56.3834 264.308L51.0001 264.308L51.0001 261.012ZM56.9943 267.564C58.2569 267.564 59.3585 267.788 60.2989 268.236C61.2394 268.685 61.9586 269.319 62.4567 270.139C62.9547 270.959 63.2037 271.901 63.2037 272.965C63.2037 273.838 63.0455 274.611 62.7291 275.285C62.4156 275.962 61.9791 276.527 61.4195 276.981C60.86 277.436 60.2213 277.775 59.5035 278.001C58.7858 278.229 58.0211 278.344 57.2096 278.344C56.3336 278.344 55.5074 278.237 54.7311 278.023C53.9547 277.812 53.2721 277.488 52.6832 277.052C52.0943 276.618 51.63 276.056 51.2901 275.364C50.9532 274.676 50.7848 273.876 50.7848 272.965C50.7848 272.209 50.9151 271.503 51.1759 270.847C51.4366 270.193 51.8263 269.619 52.3448 269.124C52.8663 268.632 53.5167 268.248 54.296 267.973C55.0782 267.7 55.9776 267.564 56.9943 267.564ZM56.9943 271.018C54.4513 271.018 53.1798 271.667 53.1798 272.965C53.1798 273.691 53.5328 274.194 54.2389 274.472C54.9449 274.75 55.9293 274.89 57.192 274.89C59.6031 274.89 60.8087 274.248 60.8087 272.965C60.8087 272.487 60.6534 272.105 60.3429 271.818C60.0323 271.531 59.5943 271.326 59.0289 271.203C58.4664 271.08 57.7882 271.018 56.9943 271.018ZM51.0001 280.022L63.006 280.022L63.006 283.028L56.902 287.278L63.006 287.278L63.006 289.871L51.0001 289.871L51.0001 287.278L57.8028 282.598L51.0001 282.598L51.0001 280.022Z" fill="white"/>
</svg>
